<svg xmlns="http://www.w3.org/2000/svg" viewBox="0 0 88.97 88.97"><defs><style>.cls-1{fill:#a92f6f;fill-rule:evenodd;}.cls-2{fill:none;stroke:#f5dc75;stroke-miterlimit:10;stroke-width:3px;}</style></defs><title>ico-heart</title><g id="Слой_2" data-name="Слой 2"><g id="Layer_1" data-name="Layer 1"><path class="cls-1" d="M30.18,57.3c1.65-.14,8.12-2.2,10.48-2.74,0,1.61.71,2.24.75,3.74l-7.68,2a17.38,17.38,0,0,0-2.55.7,26.36,26.36,0,0,1-1-3.74Zm.25-10.48a42,42,0,0,1-1.14-4.1c-1.08-3.81-.62-3.61.07-8.7.39-2.86.76-3.12-.42-3.91-1.2.32-1.11,1-1.33,2.42l-1.42,9.81c0,3.41,3.73,9.41,5.49,12.72a54,54,0,0,0,7-1.75c-.12-5.22-1.39-5.89-4.57-9.15-1.62-1.66-1-5.57-2.42-5.57-3.3,0,.16,4,.25,8a5.24,5.24,0,0,0-1.5.25Zm-.5,9c-2.77.06-1.39,1.78-.6,5.09.71,3,.75,2.12,7.34.39,1.9-.5,5.24-1.2,6.74-2,0-1.69-1.11-4.57-1.5-6.24-.69-.33-.48-.25-1.5-.25-1.25-5.36.34-4.35-4.06-8.67-3.48-3.42-.4-7.3-5.67-7.3.61-2.62,2-8.81-2.18-8.36-2.84.3-2.6,4.42-3.34,8.83-1.41,8.34-.13,8.36,2.78,14.25C28.68,53.08,29.83,54.6,29.93,55.8Z"/><path class="cls-1" d="M58.62,61a17.37,17.37,0,0,0-2.55-.7l-7.68-2c0-1.61.71-2.24.75-3.74,1.68.39,3.3,1,5.09,1.4a42,42,0,0,0,5.39,1.35,27.93,27.93,0,0,1-1,3.74Zm2.25-30.93c-.8.53-.89.52-.7,1.91.26,1.93.51,4.88,1,6.8.29,1.14-1.51,7.42-1.79,8a5.23,5.23,0,0,0-1.5-.25c0-3.32,3.14-8,.75-8-1.51,0-1.24.43-2.08,3.9-.92,3.79-5.4,2.91-5.4,10.82a54,54,0,0,0,7,1.75c1.08-2,2-4,3.16-6.07,3.16-5.64,2.47-6.81,1.37-13.43-.52-3.12-.31-5.06-1.78-5.45Zm-1.75,6.74c-5.25,0-2.32,4-5.55,7.17-4.6,4.5-2.94,3.48-4.18,8.79-1,0-.8-.08-1.5.25-.39,1.66-1.46,4.54-1.5,6.24a40,40,0,0,0,6.54,1.94c8.15,2.07,6.56,3,8.07-2.3.52-1.81,1.25-3.08-1.14-3.14a4.48,4.48,0,0,1,.85-2.14l3.23-6c1.71-3.52,1.4-6.17.73-10.14-.31-1.81-.54-3.46-.82-5.17-.32-2-.35-3.41-2.39-3.86a2.66,2.66,0,0,0-3.09,2.84c0,.55.22,1.88.32,2.7S58.93,36.06,59.12,36.85Z"/><path class="cls-1" d="M37.17,27.12c0-3.21,5.64-5,6.83-.6.27,1,0,.75.65,1.35,1.87-.43.53-1,1.62-2.62,1.56-2.38,6.36-1.53,6.36,2.12,0,2.08-4.29,6-5.7,7.77-.57.72-1.55,2-2.28,2.21-.23-.86-.21-.57-.8-1.19a15.14,15.14,0,0,1-1-1.23L38.6,30.18a4,4,0,0,1-1.43-3.06Zm-1.75.25c0,2,1.69,3.81,2.93,5l3.86,4.37c.52.58.67.89,1.25,1.5s.67.9,1.44,1.31c1-.54.61-.31,1.33-1.17,2.53-3,8.15-8.14,8.15-11.06a5.19,5.19,0,0,0-6.83-4.84c-1,.29-2.13.84-2.4,1.85h-.5C43.82,21.28,35.42,21.23,35.42,27.37Z"/><circle class="cls-2" cx="44.49" cy="44.49" r="42.99"/></g></g></svg>