<svg xmlns="http://www.w3.org/2000/svg" viewBox="0 0 88.97 88.97"><defs><style>.cls-1{fill:#a92f6f;fill-rule:evenodd;}.cls-2{fill:none;stroke:#f5dc75;stroke-miterlimit:10;stroke-width:3px;}</style></defs><title>ico-build</title><g id="Слой_2" data-name="Слой 2"><g id="Layer_1" data-name="Layer 1"><path class="cls-1" d="M41.71,49h5.54V57H41.71V49Zm2.61-31.47-.2,0c-.33.1-.1.06-.31.18s0,.08-.38.11c-.83,0-3.66-.08-4.24,0A1.07,1.07,0,0,0,38.37,19v3.59c0,.83.55,1.22,1.39,1.22h3.67c0,2.9.18,2.35-.63,2.72l-11,5a1.06,1.06,0,0,0,.59,1.89h.81v6.77H20.92a1,1,0,0,0-.9.9V58.18a1.05,1.05,0,0,0,1.14,1H67.8a1.06,1.06,0,0,0,1.14-1V41.05a1,1,0,0,0-.9-.9H55.74V33.39c.78,0,1.79.13,1.79-1.14,0-.76-.78-.93-1.11-1.09L51.77,29c-1.53-.77-3.9-1.7-5.43-2.48-.29-.14-.53-.22-.79-.35V19c0-.84-.3-1.36-.82-1.47ZM39.59,48.23c0-.69.32-1.31,1-1.31H48.4c.66,0,1,.62,1,1.31V57H66.91V42.2H54.6c-1.06,0-1-1.24-1-1.79V32.17L49,30.07c-.49-.23-4.45-2-4.54-2s-5.94,2.72-6.88,3.11c-.44.18-.7.31-1.13.5l-1.12.51v8.32c0,.59,0,1.71-1,1.71H22.06V57H39.59V48.23Zm.9-28.37h2.94v1.79H40.49Z"/><path class="cls-1" d="M43.43,40.24V43a1.06,1.06,0,1,0,2.12,0c0-1.15.2-3-.31-3.61A1.06,1.06,0,0,0,43.43,40.24Z"/><path class="cls-1" d="M47.83,40.32c0,1.08-.19,2.83.3,3.37a1,1,0,0,0,1.82-.76V40.24A1.07,1.07,0,1,0,47.83,40.32Z"/><path class="cls-1" d="M39,40.07v2.86a1.06,1.06,0,1,0,2.12-.08V40.32A1.07,1.07,0,1,0,39,40.07Z"/><path class="cls-1" d="M24.59,45.95c0,1.62-.34,3.59,1.06,3.59a1,1,0,0,0,1.06-1V45.7C26.71,44.33,24.59,44,24.59,45.95Z"/><path class="cls-1" d="M39,33.39v2.85a1.06,1.06,0,1,0,2.12-.08c0-.8.13-2.87-.23-3.36A1.07,1.07,0,0,0,39,33.39Z"/><path class="cls-1" d="M24.59,52.63c0,1.28-.31,3.59.9,3.59.62,0,1.22-.17,1.22-1.06V52.31C26.71,51.13,24.59,50.74,24.59,52.63Z"/><path class="cls-1" d="M47.83,33.55v2.61a1.06,1.06,0,1,0,2.12.16V33.39A1.06,1.06,0,1,0,47.83,33.55Z"/><path class="cls-1" d="M62.26,45.7v2.86a1.1,1.1,0,0,0,.3.68,1.08,1.08,0,0,0,1.82-.92V45.95C64.38,44,62.26,44.33,62.26,45.7Z"/><path class="cls-1" d="M62.26,52.31v2.85c0,1.34,2.12,1.62,2.12-.24,0-1.62.34-3.59-1.06-3.59a.91.91,0,0,0-.72.26A1.12,1.12,0,0,0,62.26,52.31Z"/><path class="cls-1" d="M43.43,33.55v2.61a1.06,1.06,0,1,0,2.12,0V33.55A1.06,1.06,0,1,0,43.43,33.55Z"/><path class="cls-1" d="M33.48,45.54v3.1c0,1.18,2,1.18,2,0v-3.1a1,1,0,0,0-2,0Z"/><path class="cls-1" d="M53.46,45.54v3.1c0,1.18,2,1.18,2,0v-3.1a1,1,0,0,0-2,0Z"/><path class="cls-1" d="M33.48,52.22v3.1c0,1.2,2,1.2,2,0v-3.1C35.52,51.06,33.48,51,33.48,52.22Z"/><path class="cls-1" d="M29.08,45.37v3.26a1,1,0,0,0,2-.16V45.54a1,1,0,0,0-2-.16Z"/><path class="cls-1" d="M53.46,52.22v3.1c0,1.2,2,1.2,2,0v-3.1C55.49,51,53.46,51,53.46,52.22Z"/><path class="cls-1" d="M57.86,45.54v2.94a1,1,0,0,0,2,.16v-3.1a1,1,0,0,0-1-.93,1.24,1.24,0,0,0-.69.23A1.05,1.05,0,0,0,57.86,45.54Z"/><path class="cls-1" d="M29.08,52.22v3.1c0,1.24,2,1.16,2,0V52.39A1,1,0,0,0,29.08,52.22Z"/><path class="cls-1" d="M57.86,52.39v2.93c0,1.18,2,1.21,2,0v-3.1A1,1,0,0,0,57.86,52.39Z"/><circle class="cls-2" cx="44.49" cy="44.49" r="42.99"/></g></g></svg>