<svg xmlns="http://www.w3.org/2000/svg" viewBox="0 0 88.97 88.97"><defs><style>.cls-1{fill:#a92f6f;fill-rule:evenodd;}.cls-2{fill:none;stroke:#f5dc75;stroke-miterlimit:10;stroke-width:3px;}</style></defs><title>ico-canvas</title><g id="Слой_2" data-name="Слой 2"><g id="Layer_1" data-name="Layer 1"><path class="cls-1" d="M49.84,47.59l1.77-1.81L62.44,56.57a6.81,6.81,0,0,0-.93.89c-.26.26-.59.73-.95.82L49.84,47.59Zm-2.59-4.4a31.41,31.41,0,0,1,1.6,3,6.53,6.53,0,0,0,1.52-1.43,2.91,2.91,0,0,1-.81-.37c-.29-.17-.45-.26-.77-.41a13.93,13.93,0,0,0-1.54-.81ZM27.84,47.47,26,45.65,36.78,34.91l1.81,1.86L27.84,47.47ZM41.1,32.4c-.45.1-2.56,1.41-3,1.52a4.49,4.49,0,0,0,1.43,1.43,2.54,2.54,0,0,1,.39-.79Zm0,0Zm-8.43,4.3c.34-.09.5-.38.74-.61A30.6,30.6,0,0,1,36.69,33c1.41-.7,3.6-2,5-2.7,1.15-.56,2.05-1.32,3.74-1.32a4.85,4.85,0,0,1,4.16,2.25,10.81,10.81,0,0,1,1.75,4.32.78.78,0,0,1-1.55,0c-.53-1.8-1.53-5-4-5a4.11,4.11,0,0,0-1.94.34,23.82,23.82,0,0,0-1.52,2.7L40.79,36.3a3.93,3.93,0,0,1-.64,1c-1.63,1.73-4.1,4.1-5.9,5.9-.24.24-1.58,1.46-1.58,1.71V55.24H55.26c-.26-.39-6.1-6.14-6.6-6.64a13.67,13.67,0,0,1-1.94-3.11l-1.15-2.14c-.51-.87-.62-1.51-1.33-2s-2-.81-2,.61c0,2.06,3,4.06,3,6.32,0,.92.07,1.5-.74,2.21-1.61,1.42-5.28-.17-6.65-1-.32-.19-1.13-.57-1.13-1s.09-.93.59-.93.4,0,1.1.42l2.25,1c2.53,1,4.06.41,2.4-2.23-.88-1.41-2.46-3-2.46-4.87A2.55,2.55,0,0,1,43,39.4a5.44,5.44,0,0,1,2.81,1.23L52,44c.88.52,3.44,3.49,4.13,4v-22H32.67V36.7Zm-8.51,8.77c0,.76.19.74.74,1.29l1.81,1.81c1.3,1.3,1.29.95,2.87-.63a17,17,0,0,1,1.58-1.54v8.34c0,2.14-.17,2.11,2,2.11h4.21c-.12.53-.34,1.2-.5,1.7s-.34,1.16-.53,1.75a23.38,23.38,0,0,0-1,3.8c0,.27.43.59.76.59.77,0,.84-.94,1-1.57s.39-1.34.61-2.09.41-1.37.63-2.07L39,56.84H49.78c0,.41,1.62,5.66,1.8,6.21s.29,1.63,1.06,1.63c1.39,0,.44-2,.29-2.56-.39-1.36-1.29-4.16-1.55-5.27H56c.87,0,.79-.12,1.24.36l2.36,2.36c1.15,1.15,1.2.78,2.95-1,.5-.5,1.71-1.52,1.71-2,0-.8-1.5-2-2.34-2.8l-3.71-3.71c-.78-.78-.61-.45-.61-1.92V25.83c0-.66.2-1.52-1-1.52H32.16c-.57,0-1,.21-1,.76v5.48q0,3.67,0,7.34c0,.63,0,.42-.66,1.11L25,44.47C24.83,44.67,24.16,45.21,24.16,45.46Z"/><circle class="cls-2" cx="44.49" cy="44.49" r="42.99"/></g></g></svg>