<svg xmlns="http://www.w3.org/2000/svg" viewBox="0 0 24.82 44.44"><defs><style>.cls-1{fill:#a92f6f;fill-rule:evenodd;}</style></defs><title>ico-ball-inverse</title><g id="Слой_2" data-name="Слой 2"><g id="Layer_1" data-name="Layer 1"><path class="cls-1" d="M0,12v2.39c0,6,6.43,14.63,11.22,15.75-1.49,2.23-3.14,2.15-3.11,6.44C8.12,38,8.43,40,8,41.19s-2.23,1.62-2.23,2.54c0,2,4.06-.66,4.06-3.82,0-2.5-.41-3.89.26-5.71a6.94,6.94,0,0,1,2.37-2.88,39.07,39.07,0,0,0,1,4.3c1.24-.1,1.35-.57,2.15-1.19a7.25,7.25,0,0,0,1.67-1.67c-1-1.43-2.52-1.51-3.34-2.63A11.76,11.76,0,0,0,16,29c4.32-2.92,8.78-9.35,8.78-14.85,0-5.66-2.3-10.32-6.84-12.73C9-3.35,0,4.87,0,12Z"/></g></g></svg>