<?xml version="1.0" encoding="UTF-8"?>
<!DOCTYPE svg PUBLIC "-//W3C//DTD SVG 1.1//EN" "http://www.w3.org/Graphics/SVG/1.1/DTD/svg11.dtd">
<!-- Creator: CorelDRAW X8 -->
<svg xmlns="http://www.w3.org/2000/svg" xml:space="preserve" width="210mm" height="297mm" version="1.1" style="shape-rendering:geometricPrecision; text-rendering:geometricPrecision; image-rendering:optimizeQuality; fill-rule:evenodd; clip-rule:evenodd"
viewBox="0 0 21000 29700"
 xmlns:xlink="http://www.w3.org/1999/xlink">
 <defs>
  <style type="text/css">
   <![CDATA[
    .fil6 {fill:#E5097F}
    .fil9 {fill:#133D6C}
    .fil0 {fill:#133D6C}
    .fil4 {fill:#2898DA}
    .fil7 {fill:#C7226B}
    .fil8 {fill:#F5B105}
    .fil5 {fill:#F5B105}
    .fil3 {fill:#133D6C;fill-rule:nonzero}
    .fil2 {fill:#C7226B;fill-rule:nonzero}
    .fil1 {fill:#F5B105;fill-rule:nonzero}
   ]]>
  </style>
 </defs>
 <g id="Layer_x0020_1">
  <metadata id="CorelCorpID_0Corel-Layer"/>
  <g id="_977266256">
   <g>
    <path class="fil0" d="M10317 13716c107,31 200,87 273,161 -55,-44 -119,-77 -191,-97 -296,-84 -603,89 -687,385 -83,296 89,603 385,686 205,58 415,-7 553,-150 -152,202 -417,301 -675,228 -335,-94 -530,-442 -436,-777 95,-335 443,-530 778,-436z"/>
    <path class="fil0" d="M10382 14731c-79,18 -158,14 -231,-7 51,8 104,7 157,-5 218,-50 355,-267 305,-485 -49,-219 -267,-356 -485,-306 -151,34 -263,149 -301,289 26,-182 162,-338 352,-381 247,-56 493,98 549,346 56,247 -98,493 -346,549z"/>
    <path class="fil0" d="M10426 13495l-5 6c13,16 3,-8 11,26 2,5 4,24 5,33l28 1c45,17 4,2 37,39 22,-1 46,-6 63,7 36,27 3,45 3,45 -28,12 -63,12 -96,6l0 19c129,32 107,55 214,22l-1 68c33,33 85,91 133,117 127,68 221,197 333,117 50,-35 -17,-17 47,-58 3,-2 41,-25 42,-26 29,-11 47,-6 52,33 8,58 -42,137 -77,173 11,59 10,28 -4,93 -9,42 12,44 10,89 35,30 27,34 34,67 9,43 12,32 29,57 33,50 17,91 25,129l-153 0 0 245c-47,-22 -80,-64 -86,-111 -59,-4 -34,10 -48,-23 -16,11 -8,-11 -18,16 -23,66 58,100 19,200 -56,144 -241,186 -305,52 -44,-91 -26,-129 8,-201 -35,-13 -44,-31 -49,-54l32 -527c4,-4 0,-10 1,-20 -31,-3 -21,-10 -27,1 -813,29 -651,163 -829,-250 -1,0 -2,0 -2,0l-52 -216c-17,-84 -23,-156 -40,-243l-15 -144c-31,-12 -24,-9 -51,0 -1,-4 -2,-9 -3,-10l-7 -13c-29,10 -48,22 -62,35l6 -69 166 -144c15,10 29,21 44,30 70,38 94,115 120,160 6,-42 -22,-113 -12,-197 14,-109 29,-75 82,-136 -3,-91 -7,-148 70,-181 155,-67 310,6 277,178 -11,60 19,43 9,96 -6,30 -26,49 -35,89l-75 24c-4,74 99,118 109,227l1 1 0 7c7,7 8,7 15,19 5,9 8,18 11,27 9,25 12,43 16,69zm689 860c16,28 21,43 19,75 23,26 15,31 32,57l34 -3c1,-29 -11,-56 -21,-85 -14,-41 -17,-43 -64,-44zm0 81l-19 -40c-46,43 -79,14 -89,95l-17 82c-8,29 13,33 22,48 71,-19 66,-24 71,-105l44 -27 -12 -53zm-275 470c-18,-22 37,-11 -23,-23 11,23 -1,14 23,23zm1 -237c37,3 40,5 60,-21 36,-46 117,-112 -36,-98l-24 119zm-22 -211c9,-34 10,-20 -27,-28 9,29 -9,15 27,28zm-47 -54c19,-22 10,0 31,-31 -14,-7 11,-7 -32,-9 -35,-2 -31,11 -75,18l-8 131c80,-78 66,-87 84,-109zm201 -40c-21,-48 -49,-81 -89,-97l-51 106c12,21 24,20 37,39l-18 82c30,-9 59,-23 80,-36 4,-52 -3,-61 24,-83l17 -11zm-184 -68c1,-16 3,-32 2,-49l-10 -36c-16,33 15,35 -12,63 -21,22 -32,-1 -51,42 27,13 44,5 71,-20zm-682 -1145c5,-60 -5,-39 -33,-73 -22,-27 -6,-37 -36,-75 -2,44 2,71 10,111l16 72c0,1 2,7 2,6 0,-1 2,3 6,4l35 -45z"/>
    <path class="fil0" d="M11246 14432c111,0 201,90 201,201 0,112 -90,202 -201,202 -112,0 -202,-90 -202,-202 0,-111 90,-201 202,-201z"/>
    <path class="fil0" d="M10825 14589c121,0 219,98 219,219 0,121 -98,219 -219,219 -121,0 -220,-98 -220,-219 0,-121 99,-219 220,-219z"/>
   </g>
   <g>
    <g>
     <path class="fil1" d="M12692 18639c-46,-96 -133,-115 -231,-72 -100,43 -140,119 -106,199 39,90 121,75 199,60 119,-21 175,-27 202,36 26,61 -7,119 -87,153 -88,39 -164,22 -202,-65l-42 18 2 4c43,100 139,131 255,81 86,-37 159,-112 114,-214 -40,-94 -124,-81 -236,-59 -81,15 -137,26 -164,-35 -24,-57 5,-108 78,-139 76,-33 141,-19 175,51l43 -18zm691 -165l-42 22c36,90 20,178 -70,226 -99,53 -205,8 -269,-112 -64,-120 -41,-235 58,-288 72,-39 149,-26 199,34l43 -22c-60,-87 -175,-96 -261,-50 -135,72 -149,221 -81,349 76,143 206,193 330,127 107,-57 144,-169 93,-286zm332 -630l-38 29 133 179 -243 180 -133 -179 -39 28 305 413 39 -29 -148 -199 244 -180 147 199 38 -28 -305 -413zm445 -424l-34 34 216 218c74,75 106,143 21,228 -87,85 -155,60 -232,-18l-216 -218 -35 34 225 227c95,95 192,98 286,4 93,-92 88,-188 -5,-281l-226 -228zm722 -150l-172 226 -375 -286 -29 39 408 311 201 -264 -33 -26zm-89 -746l-182 300 439 266 183 -302 -35 -22 -159 261 -173 -105 147 -242 -35 -22 -148 242 -158 -96 157 -258 -36 -22z"/>
     <path class="fil2" d="M6445 16816l-162 -279 -444 257 24 41 212 -122 122 211 37 -21 -123 -211 160 -93 138 238 36 -21zm96 154l-401 320 30 38 179 -143 93 115c57,73 65,112 -7,177 -19,19 -74,61 -79,83l34 43c4,-32 71,-86 88,-101 51,-47 66,-85 35,-142 50,39 108,40 161,-2 76,-61 65,-140 9,-210l-142 -178zm-3 63l103 129c41,51 62,111 1,160 -72,58 -129,6 -173,-50l-90 -112 159 -127zm434 449l-33 -34 -367 359 34 35 366 -360zm448 409l-267 -227 -332 392 270 228 27 -32 -233 -197 131 -155 216 183 27 -31 -216 -183 120 -142 230 196 27 -32zm171 129l-289 423 154 106c132,90 252,24 333,-94 82,-120 83,-243 -47,-332l-151 -103zm16 62l112 76c96,65 101,165 29,272 -67,97 -156,161 -278,78l-105 -72 242 -354zm823 423l-313 -160 -233 457 315 161 19 -37 -272 -139 92 -181 253 129 18 -37 -252 -128 84 -165 270 137 19 -37zm342 631l-268 -94 156 -445 -46 -16 -170 484 314 111 14 -40z"/>
     <path class="fil3" d="M9821 18903l-344 -68 -100 503 347 69 8 -41 -300 -60 40 -199 278 55 8 -40 -278 -55 37 -182 296 59 8 -41zm194 18l-28 512 187 10c159,9 228,-110 236,-253 7,-145 -55,-251 -213,-259l-182 -10zm45 44l135 8c116,6 173,88 166,217 -6,117 -49,219 -197,211l-127 -7 23 -429zm946 -35l-351 11 16 513 353 -11 -1 -42 -305 9 -6 -203 283 -8 -1 -41 -284 8 -5 -185 302 -9 -1 -42zm197 -25l85 506 47 -8 -37 -226 146 -24c91,-15 129,-3 151,92 7,26 17,94 34,109l54 -9c-27,-19 -41,-104 -46,-126 -15,-66 -41,-99 -106,-99 58,-26 87,-76 76,-142 -16,-96 -90,-125 -178,-110l-226 37zm55 34l162 -28c65,-10 128,0 141,78 15,90 -58,115 -129,126l-141 24 -33 -200z"/>
    </g>
    <path class="fil0" d="M9049 18954c28,0 50,23 50,50 0,28 -22,50 -50,50 -28,0 -50,-22 -50,-50 0,-27 22,-50 50,-50z"/>
    <path class="fil0" d="M12029 18931c28,0 50,22 50,50 0,28 -22,50 -50,50 -27,0 -50,-22 -50,-50 0,-28 23,-50 50,-50z"/>
   </g>
   <g>
    <path class="fil3" d="M6649 10604c7,5 12,11 16,16 5,5 8,9 9,13 1,5 2,9 1,12 0,3 -1,6 -3,9l-210 237 229 202 198 -225c2,-2 4,-4 8,-5 3,-1 6,-1 11,0 4,1 9,3 14,6 5,4 12,8 19,15 7,6 12,11 16,16 4,5 7,9 8,13 2,5 2,9 2,12 0,4 -2,7 -4,9l-197 224 280 247c2,3 4,5 5,9 1,3 1,7 -1,11 -2,5 -4,10 -8,16 -4,6 -10,14 -17,22 -8,8 -14,15 -20,20 -6,5 -11,8 -15,10 -4,3 -8,3 -11,3 -4,-1 -7,-2 -9,-4l-623 -550c-13,-12 -20,-23 -19,-35 0,-11 4,-21 11,-29l257 -291c2,-2 5,-4 8,-5 3,-1 7,-1 12,0 4,1 9,4 15,7 6,4 12,9 18,15zm1062 -358c44,57 78,114 100,170 22,56 33,110 32,163 -1,52 -14,102 -40,150 -26,47 -65,91 -117,131 -52,40 -102,66 -152,79 -50,13 -99,14 -147,2 -48,-11 -95,-35 -141,-71 -47,-36 -93,-83 -138,-141 -43,-56 -76,-112 -98,-168 -22,-56 -32,-110 -31,-162 2,-52 15,-102 41,-149 26,-48 65,-91 117,-132 51,-38 101,-64 150,-77 50,-13 98,-15 146,-3 48,11 96,34 142,69 46,35 92,81 136,139zm-91 80c-31,-40 -64,-75 -97,-104 -33,-29 -68,-50 -103,-63 -36,-13 -73,-17 -110,-10 -38,6 -77,24 -116,55 -40,30 -67,63 -82,99 -15,36 -21,73 -18,112 3,38 14,77 33,117 19,40 43,78 72,116 33,42 65,77 99,107 34,30 68,52 104,65 35,13 71,17 109,10 37,-6 76,-25 116,-56 40,-30 68,-64 83,-100 15,-36 21,-74 17,-113 -3,-38 -15,-78 -34,-117 -19,-40 -44,-79 -73,-118zm1043 -72c2,3 3,6 3,9 0,3 -1,7 -5,10 -3,4 -8,8 -15,12 -6,5 -16,10 -28,16 -10,5 -19,9 -26,11 -7,3 -13,4 -18,4 -4,0 -9,-1 -13,-3 -4,-2 -7,-6 -12,-10l-165 -154c-19,-17 -38,-32 -56,-46 -18,-13 -36,-24 -55,-31 -19,-7 -38,-9 -59,-8 -20,1 -42,7 -65,19l-69 34 170 342c2,4 3,7 2,10 -1,4 -2,7 -5,10 -3,4 -8,8 -14,12 -6,4 -14,9 -24,14 -10,5 -18,9 -26,11 -7,2 -13,3 -17,4 -5,0 -9,0 -12,-2 -2,-1 -5,-4 -6,-7l-371 -744c-8,-16 -9,-29 -4,-40 5,-10 12,-18 21,-22l164 -82c20,-10 36,-17 50,-23 13,-5 25,-10 36,-14 33,-9 64,-14 92,-14 29,0 55,5 80,15 24,10 46,25 65,44 19,19 36,43 50,70 13,27 22,53 25,78 4,24 3,48 -2,71 -5,23 -13,45 -26,66 -12,21 -28,41 -46,61 15,0 30,1 45,5 15,4 30,10 45,17 15,8 31,19 47,31 16,12 33,26 51,42l158 143c13,12 22,21 26,26 5,5 8,9 9,13zm-436 -488c-15,-31 -35,-54 -60,-69 -24,-15 -55,-20 -91,-13 -12,2 -24,6 -37,11 -13,5 -30,12 -50,22l-87 43 135 271 100 -50c27,-14 49,-29 65,-45 17,-17 28,-35 35,-53 8,-19 10,-38 8,-58 -2,-20 -8,-39 -18,-59zm1115 -183c21,74 30,142 27,203 -3,61 -17,115 -42,162 -25,46 -61,86 -107,119 -47,32 -105,58 -176,78l-177 50c-10,2 -20,2 -31,-3 -10,-4 -18,-15 -23,-33l-215 -770c-5,-17 -4,-31 3,-40 6,-9 15,-15 25,-18l188 -53c72,-20 136,-27 191,-22 55,5 105,22 149,49 43,26 81,63 113,110 31,47 57,103 75,168zm-115 37c-13,-47 -30,-89 -53,-126 -22,-37 -50,-67 -82,-90 -32,-23 -68,-37 -109,-43 -41,-6 -91,-2 -148,15l-113 31 188 672 114 -31c53,-15 96,-35 129,-59 32,-24 57,-53 73,-89 17,-35 25,-76 25,-122 1,-47 -7,-99 -24,-158zm884 262c1,8 1,15 1,22 0,6 -1,11 -3,16 -1,4 -4,7 -6,9 -3,3 -6,4 -10,4l-412 48c-10,1 -20,-1 -30,-7 -10,-6 -16,-18 -18,-36l-92 -794c-2,-18 1,-31 9,-40 8,-8 17,-12 28,-14l407 -47c4,0 7,0 10,2 3,1 6,4 8,8 2,4 4,9 6,15 2,6 4,14 5,23 1,8 1,15 1,22 -1,6 -2,11 -3,16 -1,4 -4,7 -6,9 -3,2 -6,3 -9,4l-336 39 32 279 288 -34c4,0 7,1 11,2 2,2 5,5 8,8 2,4 4,8 6,15 1,6 3,14 4,22 1,9 1,16 1,22 0,6 -1,11 -3,15 -1,4 -3,7 -6,9 -3,2 -6,3 -9,3l-289 34 37 318 341 -39c3,-1 7,0 10,1 3,2 6,5 9,8 2,4 4,9 6,15 1,6 3,13 4,23zm768 28c0,4 -1,7 -2,10 -2,2 -4,5 -9,6 -4,2 -11,3 -19,4 -8,0 -19,0 -32,0 -11,-1 -21,-2 -28,-3 -7,-1 -13,-3 -18,-5 -4,-2 -7,-5 -10,-9 -2,-4 -4,-9 -5,-14l-71 -215c-8,-25 -17,-47 -26,-68 -9,-20 -20,-38 -34,-53 -13,-15 -29,-27 -47,-36 -18,-9 -41,-14 -67,-15l-76 -3 -17 382c0,3 -1,6 -3,9 -2,3 -6,5 -10,6 -4,2 -10,3 -17,4 -8,1 -17,1 -28,0 -11,0 -20,-1 -28,-3 -7,-1 -13,-3 -17,-5 -5,-1 -7,-4 -9,-7 -2,-2 -3,-6 -2,-9l35 -830c1,-18 6,-30 15,-37 9,-7 19,-10 30,-10l183 8c22,1 40,2 55,4 14,2 27,4 38,6 33,7 62,18 88,32 25,14 45,31 62,52 16,20 28,43 36,70 8,25 11,54 9,85 -1,30 -6,56 -15,80 -9,23 -21,44 -36,61 -16,18 -34,33 -55,46 -21,12 -44,22 -70,31 14,7 26,15 38,26 11,10 21,23 30,37 10,14 19,31 27,49 8,18 16,39 24,62l69 201c5,17 9,29 10,35 2,7 2,12 2,16zm-146 -637c2,-35 -4,-65 -19,-90 -14,-25 -38,-44 -74,-56 -11,-4 -23,-6 -37,-8 -14,-2 -32,-4 -55,-5l-97 -4 -12 302 112 5c30,1 56,-1 79,-8 22,-7 41,-17 56,-30 15,-13 27,-28 34,-46 8,-19 12,-38 13,-60zm642 684c-2,5 -5,9 -9,12 -3,3 -8,5 -14,5 -6,2 -13,2 -22,1 -8,0 -19,-2 -33,-3 -9,-2 -18,-3 -25,-4 -7,-2 -13,-3 -18,-5 -5,-2 -10,-3 -13,-5 -4,-2 -7,-4 -9,-6 -3,-2 -4,-5 -6,-7 -1,-3 -2,-6 -3,-10l-159 -866c-2,-10 -3,-18 -2,-25 0,-6 3,-10 7,-13 5,-2 11,-4 20,-3 9,0 21,1 36,4 13,1 22,3 30,5 7,2 12,4 16,6 3,2 6,5 8,9 1,3 3,7 4,12l136 783 1 0 347 -711c2,-5 5,-9 7,-12 2,-3 6,-5 10,-6 5,-1 11,-2 19,-1 8,0 19,1 32,3 14,2 24,4 32,7 8,2 13,5 15,8 3,4 3,9 2,15 -2,6 -5,14 -10,23l-399 784zm890 199c-2,8 -5,15 -7,21 -3,5 -6,10 -9,13 -4,4 -7,6 -10,7 -4,1 -7,1 -11,-1l-397 -120c-9,-3 -18,-10 -24,-19 -7,-10 -8,-23 -2,-40l233 -766c5,-17 13,-27 24,-32 10,-4 21,-4 31,-1l392 119c4,1 6,3 9,6 2,2 3,6 4,10 0,5 0,10 -1,16 0,7 -2,14 -5,23 -2,8 -5,15 -8,21 -3,5 -6,10 -8,13 -3,3 -6,5 -10,6 -3,1 -6,1 -10,0l-323 -98 -82 268 278 85c3,1 6,3 8,6 2,3 4,6 4,10 1,4 1,10 0,16 -1,7 -3,14 -5,22 -3,8 -5,15 -8,21 -2,5 -5,9 -8,12 -3,3 -6,5 -10,6 -3,1 -6,0 -10,-1l-277 -84 -94 307 328 99c4,1 7,3 9,6 2,3 4,6 5,10 1,5 1,10 0,16 -1,7 -3,14 -6,23zm693 336c-2,3 -4,6 -6,8 -3,2 -6,3 -11,3 -5,0 -11,-1 -19,-4 -7,-2 -17,-6 -29,-11 -11,-5 -20,-9 -26,-13 -6,-4 -11,-8 -14,-11 -4,-4 -6,-8 -6,-12 -1,-5 -1,-10 -1,-16l13 -225c1,-26 1,-50 0,-73 -2,-22 -5,-43 -12,-62 -7,-19 -17,-35 -31,-50 -14,-15 -33,-28 -57,-39l-71 -30 -153 350c-2,3 -4,6 -7,7 -3,2 -6,3 -11,3 -4,-1 -10,-2 -17,-3 -8,-2 -16,-6 -27,-10 -10,-5 -18,-9 -24,-13 -7,-4 -11,-7 -15,-11 -3,-3 -5,-6 -6,-10 0,-3 0,-6 2,-9l333 -761c7,-16 17,-26 28,-29 11,-3 22,-2 31,2l168 74c20,8 37,16 49,23 13,7 24,13 35,19 28,19 51,40 69,62 19,22 32,45 39,71 9,25 11,51 9,78 -2,27 -10,54 -22,83 -12,27 -27,50 -43,69 -17,18 -36,33 -56,44 -21,11 -44,18 -68,22 -24,4 -50,6 -77,4 11,12 19,24 26,38 7,14 12,29 15,46 4,16 6,35 7,55 1,20 1,42 0,67l-8 212c-1,17 -2,30 -4,37 -1,6 -2,11 -3,15zm94 -647c14,-32 20,-62 15,-91 -4,-28 -20,-54 -48,-78 -9,-8 -20,-15 -32,-22 -12,-7 -29,-15 -50,-24l-88 -39 -122 277 103 45c28,12 53,19 76,21 24,2 45,0 64,-7 19,-6 35,-17 49,-31 13,-14 25,-31 33,-51zm458 997c-5,7 -9,12 -14,17 -4,4 -8,8 -12,10 -5,2 -8,3 -12,3 -3,0 -7,-1 -10,-3l-340 -238c-8,-6 -14,-15 -17,-26 -4,-11 0,-24 10,-38l459 -656c10,-15 21,-22 33,-23 11,-1 21,2 30,8l336 235c3,2 5,5 6,8 1,3 2,7 1,12 -1,4 -3,9 -6,15 -2,5 -6,12 -12,20 -5,7 -9,12 -14,17 -4,4 -8,8 -12,10 -4,2 -7,3 -11,3 -3,0 -6,-1 -9,-3l-277 -194 -161 230 237 166c3,2 6,5 7,8 1,4 1,8 1,12 -1,4 -3,9 -5,15 -4,6 -7,12 -12,19 -5,7 -10,13 -14,17 -4,5 -8,8 -12,10 -4,2 -7,2 -10,2 -4,0 -7,-2 -10,-4l-238 -166 -184 263 281 196c3,2 5,5 7,8 1,4 2,7 1,12 0,4 -2,9 -5,15 -3,5 -7,12 -12,20zm215 218c-2,3 -5,5 -8,6 -3,1 -7,1 -11,-1 -5,-1 -10,-4 -16,-8 -7,-4 -14,-9 -23,-16 -8,-7 -15,-13 -20,-19 -5,-6 -9,-11 -11,-15 -2,-4 -3,-8 -3,-11 0,-3 2,-6 4,-9l552 -661c2,-3 5,-5 8,-6 4,-1 8,0 12,2 5,1 10,4 17,8 6,4 13,9 21,15 9,8 15,14 20,20 5,5 9,10 11,14 3,4 4,8 3,11 0,3 -2,6 -4,9l-552 661zm635 621c-7,6 -14,10 -21,12 -7,2 -14,3 -20,2 -6,-1 -12,-3 -17,-6 -6,-4 -10,-8 -14,-12l-25 -29c-8,-9 -14,-17 -18,-26 -4,-8 -6,-17 -7,-28 0,-10 1,-22 4,-36 4,-13 9,-30 16,-48l209 -536c10,-28 22,-56 34,-86 13,-29 25,-58 38,-85l-1 -1c-25,23 -50,46 -75,69 -26,23 -52,46 -77,69l-407 358c-2,2 -5,3 -8,4 -4,0 -8,-1 -12,-3 -4,-2 -9,-5 -15,-10 -5,-5 -12,-12 -19,-20 -8,-8 -14,-16 -18,-22 -4,-6 -6,-11 -8,-16 -1,-4 -2,-8 -1,-11 1,-4 3,-6 6,-9l620 -547c14,-12 28,-17 40,-14 13,2 23,8 31,17l37 42c9,10 15,19 20,27 4,9 6,17 7,26 1,9 0,19 -3,30 -3,11 -7,25 -13,40l-161 412c-10,25 -19,50 -29,74 -10,24 -19,47 -28,70 -10,22 -19,45 -29,67 -8,22 -18,44 -27,66l0 1c27,-25 55,-50 84,-77 30,-26 58,-51 86,-75l364 -322c3,-2 6,-3 9,-3 4,-1 7,0 12,2 4,2 9,5 15,10 5,5 12,12 20,21 7,7 12,14 16,21 5,6 8,11 9,16 1,4 1,8 0,12 0,3 -2,5 -5,8l-619 546z"/>
    <path class="fil4" d="M11629 13456c-7,-6 -13,-20 -19,-28 -5,-9 -12,-18 -19,-27l-22 -26c-4,-5 -6,-7 -11,-11 -7,-7 -7,-9 -13,-12 0,-20 23,-30 44,-37 7,-3 3,-1 8,-4 19,-9 48,-24 73,-24 5,19 3,18 -1,42l-1 4c-1,0 -1,1 -1,2 0,0 0,1 0,2l-23 105c-4,9 -7,10 -15,14zm-251 833c15,-5 101,-116 114,-116 4,0 13,4 17,7 17,10 21,34 25,54 6,29 43,67 65,88 20,20 36,31 60,43 42,20 90,7 130,5l198 -18c3,0 7,-1 15,-1 2,8 3,11 2,20l-6 17c-1,0 -1,1 -1,2 -4,7 -5,12 -7,18 -8,20 -20,33 -26,55 -6,22 -12,33 -12,57 0,67 16,98 13,176 -1,16 -6,17 -10,31 -9,30 -31,76 5,95 7,4 18,3 27,4 16,0 22,-4 45,-1 92,16 69,21 161,8 38,-6 45,15 83,-8 9,-5 17,-8 17,-20 0,-21 -62,-17 -79,-21 -1,0 -2,0 -2,-1 -41,-11 -126,-35 -135,-84 -3,-17 2,-38 8,-56 12,-37 25,-66 34,-103 5,-18 7,-35 13,-53 5,-19 6,-38 12,-57l20 -77c5,-18 35,-74 38,-96 2,-14 1,-19 4,-31 5,-25 17,-52 41,-62 4,-2 7,-3 11,-5 8,-3 3,-3 13,-5 -2,-9 -5,-9 -14,-15l-77 -54c-23,-18 -41,-39 -58,-64 -27,-41 -41,-90 -71,-129 -13,-16 -23,-30 -36,-46 -10,-13 -26,-43 -26,-62 0,-11 7,-9 18,-10 19,-2 8,-24 22,-56l34 -79c12,-27 31,-47 59,-54 46,-13 102,-16 151,-9 18,3 36,3 53,6 17,3 29,9 45,12 12,2 48,5 59,-5 12,-12 25,-20 35,-34 7,-9 9,-10 14,-23 4,-10 1,-5 6,-13 6,-7 9,-9 9,-20 0,-11 -21,-15 -29,-21 -21,-15 -17,-2 -75,2 -64,6 -36,33 -127,2 -10,-3 -16,-6 -27,-9l-61 -15c-25,-5 -20,-33 -23,-53 -6,-45 -6,-75 37,-101 11,-6 12,-11 23,-14 -1,-11 -1,-10 -7,-16l-12 -10c-45,-45 -20,-37 -33,-79l-4 -9c-6,-13 -9,-15 -18,-26 -10,-13 -34,-36 -48,-45 -18,-10 -17,-2 -22,-25l32 7c30,5 47,5 56,-29 4,-19 9,-15 18,-28 0,-1 -1,-3 -1,-2l-8 -11c-5,-5 -10,-2 -10,-12 0,-14 14,-5 35,-10 1,-10 1,-6 2,-15 0,-10 -4,-7 3,-13 9,-8 20,-7 20,-22 0,-15 -25,-7 -25,-72 0,-20 16,-34 15,-62 14,1 32,21 32,-47 0,-21 -20,-53 -28,-66 31,1 39,39 59,50 6,-24 -5,-42 -19,-62 -13,-17 -32,-32 -51,-40 -11,-4 -7,-4 -15,-7 -7,-4 -8,-3 -16,-6 -14,-4 -16,-7 -32,-12 -14,-3 -21,-8 -33,-11 -12,-3 -27,-3 -40,-6 -70,-16 -86,-12 -151,3 -22,6 -41,15 -59,29 -15,12 -34,40 -47,43 -21,-14 -24,-25 -54,-31 -57,-13 -145,17 -192,49l-109 59c-22,9 -40,16 -68,17l-63 0c0,17 24,10 45,15 19,5 22,1 46,1 13,-1 36,-4 47,-7 12,-4 23,-12 41,-12 -4,17 -3,10 -16,15 -1,1 -1,1 -2,1l-18 11c-9,3 -16,2 -25,6 -12,4 -14,5 -26,6 -14,1 -43,3 -55,2 -23,-2 -33,-8 -52,-13 0,21 12,22 27,30 14,7 26,12 41,18 5,1 4,1 10,2 8,2 4,1 10,2l9 2c37,10 80,11 120,3l7 -2c25,-4 51,-16 71,-32 4,-4 3,-8 12,-4 -19,28 -33,28 -35,44 28,0 37,-7 59,-13l30 -15c29,-13 42,-20 62,-43 2,-2 4,-4 5,-5 12,-11 25,-31 36,-39 0,0 1,-1 1,-1l11 -6c6,13 -3,24 -3,34 0,7 1,14 2,18 1,21 3,48 12,68 14,27 51,63 29,95 -7,9 -6,7 -9,19 13,3 7,6 19,10 0,14 1,13 -6,22 -3,5 -3,4 -6,9 -11,16 -23,28 -39,37 -27,16 -57,24 -88,34l-152 58c-2,1 -8,3 -11,4 -11,5 -1,5 -21,5 1,32 35,17 3,47l-54 68c-54,65 -101,68 -40,154 28,39 63,71 101,100 51,40 69,41 13,114 -5,6 -9,12 -16,15 0,19 6,16 18,19 12,3 21,8 36,11 26,6 47,7 71,20 -5,20 -24,46 -34,66l-13 31c-17,39 -22,88 -5,130l34 78c4,12 4,11 9,20 15,29 4,61 -34,40 -7,-4 -14,-8 -21,-14 -9,-7 -30,-26 -40,-29 -10,8 -11,25 -18,38 -16,-4 -22,-23 -32,-34 -11,-11 -22,-20 -35,-24l-72 287z"/>
    <path class="fil5" d="M10788 12827c-6,-21 -33,-86 -12,-102l44 -25c11,-6 40,-17 52,-20l9 10c4,5 6,10 7,15l-22 32c-9,12 -15,18 -26,30 -5,6 -6,9 -12,16 -27,30 -18,39 -40,44zm463 -833c-25,0 -15,-16 -40,4 -14,12 -25,11 -26,-13 -10,3 -12,9 -22,15 -20,14 -85,33 -87,35 -9,10 -1,40 -28,47l0 16c9,3 4,-2 4,7 0,16 -7,21 -8,40 0,9 1,22 0,31 -1,12 -6,17 -6,31 0,19 35,17 35,57 -17,4 -38,-2 -38,25 0,35 19,53 46,64l7 2c7,4 4,0 9,9 5,8 3,7 6,17 3,12 1,5 5,14 9,17 0,28 -14,34 -40,18 -105,9 -178,41l-94 41c-14,6 -15,5 -25,16 5,17 9,2 10,25 -23,6 -85,55 -100,66l-20 15c0,0 -1,1 -1,1 -53,48 -68,61 -38,136 10,24 24,53 31,78 6,19 12,37 22,54 26,43 12,18 -17,94 -4,10 -4,15 -9,25l-18 42c-4,11 -7,12 -12,22 -3,8 -7,19 -7,27 14,16 25,12 20,40l-5 15c-3,6 1,-3 -2,4 -3,10 -8,20 -10,30 -9,46 -20,104 -50,143 -20,25 -51,-9 -104,-23 -1,0 -3,-1 -4,-1l252 244 93 -70c1,-1 1,-1 2,-2 27,-21 39,-21 73,-52 37,-33 55,-22 78,11 20,28 43,56 55,89 13,33 53,221 63,255l292 -156c-3,-6 -5,-11 -5,-16 0,-14 1,1 1,-10l-8 -168c-1,-8 1,1 -1,-9l-79 -143c-8,-12 -11,-22 -18,-35l-63 -97c-42,-60 -77,-66 -57,-139 8,-30 32,-15 51,-11 21,5 57,26 77,36l48 20c22,8 40,21 61,33 9,6 25,15 32,15 14,0 25,-2 35,-8 14,-9 12,-3 23,-8 7,-3 34,-28 39,-34 -4,-12 -10,-11 -10,-15 0,-12 4,-11 7,-22 -13,-19 -48,-33 -70,-40 -30,-10 -39,4 -76,-15l-42 -27c-22,-19 -59,-47 -85,-56 -29,-11 -8,-31 1,-53 10,-24 22,-53 38,-75 8,-12 9,-22 18,-26l10 -15c0,-2 1,-3 2,-6 0,0 6,-7 6,-7l0 0 13 -19c13,-39 65,-64 -13,-143 -10,-9 -21,-19 -28,-28 -21,-26 -28,-42 -12,-70 6,-11 15,-14 23,-23 21,-22 16,-38 28,-63 10,-20 32,-16 42,-45 6,-19 26,-51 -6,-53 0,-14 0,-11 4,-22 9,-21 9,-25 9,-57 0,-18 -3,-34 -2,-47l-6 -44c-3,-15 -9,-21 -18,-33 -7,-8 -5,-8 -11,-18 -10,-17 -20,-12 -29,-23 -7,-9 0,-8 -13,-12 -16,-5 -6,3 -21,-7 4,-13 11,-5 12,-22 -18,0 -28,15 -47,15z"/>
    <path class="fil6" d="M9647 13300c-26,22 -36,44 -63,57 7,-32 8,-18 23,-51 -88,5 -80,27 -105,45 -84,-38 -119,-49 -209,-66 -93,-17 -33,-61 -194,-81 -6,73 -34,98 -43,149l-11 -2 -29 89 -13 37c27,15 29,15 40,45 11,49 5,41 20,80l24 16c46,17 40,33 87,50l8 29c31,7 58,37 86,60 131,108 179,137 92,248 -43,55 -168,145 -225,194 -47,41 -37,40 -98,19 2,65 56,66 45,144 -13,31 -55,30 -78,45 -13,91 -3,116 -41,198 -20,44 -17,42 -26,94 -16,94 -37,26 -28,115 58,18 36,37 88,72 37,25 67,33 78,81 -28,55 -69,60 -145,62 -95,3 -110,-14 -142,-52 -124,-6 -202,51 -150,-157 21,-82 -3,-51 1,-101 23,19 11,21 34,39 32,-27 28,-89 35,-127 9,-46 12,-33 24,-62 8,-19 9,-43 11,-66l66 -251c-21,-22 -55,-33 -67,-71 -17,-53 48,-69 -76,-305 -145,-275 -50,-305 -59,-434l-7 -58c9,-21 1,-10 12,-23 9,-12 6,-7 17,-15 2,-118 68,-66 71,-197 -103,-52 4,-207 20,-277 18,-77 100,-151 109,-170 44,-91 14,-164 28,-243 5,-29 16,-43 24,-67 8,-26 27,-185 -11,-228 -30,-34 -67,-50 -40,-120l49 -10c27,1 52,7 64,28 2,2 6,10 7,13l20 80c22,212 1,80 119,152 83,50 174,94 174,212l-27 11c-16,77 -49,75 -36,156 -35,31 -17,-9 -82,83 -26,39 -3,17 -15,50 -34,92 -36,32 24,112 66,88 119,106 219,153 63,30 111,88 189,55 125,-53 92,-48 193,-70 36,-8 61,7 85,25 11,18 -173,105 -120,112 33,5 -22,24 -47,19 -2,22 2,53 1,75zm-574 643c-17,-22 -15,-29 -51,-26l-1 59c32,-5 33,-12 52,-33z"/>
    <path class="fil0" d="M6810 9962c51,-4 96,35 100,86 4,51 -35,96 -86,99 -51,4 -96,-34 -100,-85 -4,-52 35,-96 86,-100z"/>
    <path class="fil0" d="M7021 9791c49,-4 91,33 95,81 3,49 -33,91 -82,95 -49,3 -91,-33 -95,-82 -3,-48 33,-91 82,-94z"/>
    <g>
     <path class="fil7" d="M7395 13038c17,-88 122,-301 171,-389 21,-37 10,-23 36,-45 12,-113 384,-579 455,-657 62,-68 119,-129 194,-198 261,-241 566,-473 949,-633 759,-316 1466,-383 2145,-177l0 0c331,65 666,188 1003,377 364,203 644,470 878,739 68,78 118,145 173,220 63,86 385,593 385,706 23,25 14,10 31,49 39,94 122,317 130,407 45,30 119,568 124,609 12,88 19,191 22,299l43 11c39,-1567 -970,-3094 -2398,-3578 -139,-47 -283,-86 -428,-115l0 0c-472,-94 -976,-110 -1444,-10 -1469,314 -2630,1715 -2751,3277l43 -7c14,-106 32,-208 53,-294 9,-40 138,-566 186,-591z"/>
     <path class="fil8" d="M7191 13084c16,-88 116,-303 163,-393 20,-37 10,-23 35,-46 10,-113 373,-587 443,-666 60,-70 116,-132 190,-203 256,-246 557,-485 936,-653 753,-334 1458,-416 2141,-225l0 0c333,57 669,173 1010,354 368,195 653,456 893,720 69,76 120,142 177,216 64,84 396,584 399,697 23,25 14,9 31,49 41,92 128,314 138,403 46,29 130,565 136,606 14,88 23,191 28,298l43 11c9,-1567 -1031,-3072 -2467,-3524 -141,-44 -285,-79 -430,-106l0 0c-474,-83 -978,-88 -1444,23 -1463,346 -2596,1773 -2687,3337l44 -8c11,-106 27,-208 46,-295 9,-41 127,-569 175,-595z"/>
    </g>
    <g>
     <path class="fil7" d="M8913 16737c-650,-87 -1165,-526 -1290,-1101 -187,-863 448,-1450 164,-1925 -33,-21 -10,-40 -118,156 -513,926 -1055,1892 -59,2846 761,730 1298,590 2088,1117 205,137 377,316 551,510 379,-1633 -730,-1754 -1358,-2449 -201,-222 -481,-607 -567,-659 -214,761 372,1123 589,1505z"/>
     <path class="fil8" d="M8096 16292c-296,-1245 711,-1760 -15,-2319 74,451 -415,1275 -239,1827 53,157 125,415 254,492z"/>
     <path class="fil9" d="M12017 16731c650,-87 1166,-526 1290,-1101 187,-864 -447,-1450 -164,-1925 33,-21 10,-41 119,155 513,927 1054,1893 58,2847 -761,729 -1298,589 -2088,1117 -205,136 -376,315 -551,510 -379,-1633 730,-1754 1358,-2449 201,-222 481,-607 567,-660 214,762 -372,1123 -589,1506z"/>
     <path class="fil8" d="M12834 16286c296,-1245 -711,-1761 16,-2320 -75,451 414,1275 238,1828 -52,156 -125,415 -254,492z"/>
    </g>
   </g>
  </g>
 </g>
</svg>
