<svg xmlns="http://www.w3.org/2000/svg" viewBox="0 0 288.42 294.75"><defs><style>.cls-1{fill:#2898da;}.cls-2{fill:#f5b105;}.cls-3{fill:#c7226b;}.cls-4{fill:#133d6c;}.cls-5{fill:#e5097f;}</style></defs><title>logo</title><g id="Слой_2" data-name="Слой 2"><g id="Слой_1-2" data-name="Слой 1"><g id="Layer_1"><g id="_612088000" data-name=" 612088000"><path class="cls-1" d="M234.48,243,226,250.5l.82,1,3.77-3.29,9.5,10.8,1-.88-9.5-10.83,3.74-3.29Zm6.95-7.46-1,1.13,8.25,14.54,1-1.11L247,245.63l4.2-5,4.87,1.87,1-1.13Zm8.62,4.65-3.66,4.31L242,237.07Zm11.62-18.79-3.49,5,1,.68,2.78-4a6.73,6.73,0,0,1,1.11.85,4.88,4.88,0,0,1,.91,6.52c-1.87,2.66-5.3,2.89-8.7.54s-4.54-5.78-2.64-8.48a4.51,4.51,0,0,1,5.81-1.53l.74-1.08a5.73,5.73,0,0,0-7.62,1.9c-2.3,3.29-1.08,7.46,3,10.29s8.14,2.38,10.43-.88a5.2,5.2,0,0,0,.14-6l.6.37,2,1.08.51-.74Zm.74-18.4L258,211.87l14,6.95,4.42-8.93-1.16-.54-3.8,7.68L266,214.28l3.51-7.14-1.11-.54-3.54,7.14-5-2.52,3.74-7.62Zm9.44-12.87c-3.12-.88-5.24.57-6.18,3.43s0,5.21,2.55,6c2.86.91,4.08-1.08,5.27-3,1.84-2.89,2.78-4.17,4.79-3.52s2.61,2.44,1.84,4.76c-.82,2.58-2.69,3.83-5.44,2.92l-.4,1.25.11,0c3.17,1,5.75-.37,6.86-3.71.79-2.52.48-5.47-2.72-6.52-3-1-4.31,1-6,3.77-1.22,2-2.07,3.34-4,2.72-1.79-.57-2.38-2.15-1.7-4.28s2.3-3.29,4.62-2.66Zm4-16.61c-3.2-.6-5.19,1-5.84,4s.51,5.19,3.09,5.78c2.92.65,4-1.45,5-3.43,1.56-3.06,2.35-4.42,4.42-3.94s2.83,2.18,2.3,4.56c-.62,2.64-2.35,4.05-5.19,3.4l-.28,1.28.14,0c3.26.74,5.7-.91,6.46-4.34.59-2.58,0-5.5-3.29-6.24-3.06-.68-4.2,1.42-5.61,4.31-1,2.07-1.76,3.52-3.74,3.06s-2.58-1.93-2.1-4.11,2-3.46,4.34-3.06Zm-3.23-16.41L272,168.47l1.28.06.31-5,14.34.82.08-1.33-14.34-.85.28-5Zm-.25-10.8.09,1.47,16,5-.08-1.47-5-1.5-.31-6.49,4.85-2-.09-1.47Zm9.47-2.49.28,5.67L273.83,147Zm-12-17.18,2.27,11.11,1.25-.26-1-4.9,14.12-2.86-.28-1.33-14.09,2.86-1-4.88Zm-4-14.46,3.4,10.83,1.22-.4-1.5-4.76,13.72-4.31-.4-1.3-13.72,4.34-1.5-4.76ZM260,98l3.83,9.1,14.43-6-3.83-9.18-1.16.51,3.29,7.91-5.73,2.38-3.06-7.34-1.16.48,3.09,7.34-5.22,2.18-3.29-7.82Z"/><path class="cls-2" d="M83.85,269.27c1.45-2.92.45-5.27-2.18-6.75s-5.13-1-6.41,1.36c-1.45,2.64.25,4.22,1.9,5.75,2.47,2.35,3.54,3.52,2.52,5.36s-2.89,2.1-5,.91c-2.38-1.33-3.23-3.4-1.84-5.92l-1.13-.62-.06.11c-1.62,2.92-.74,5.73,2.35,7.43,2.3,1.3,5.27,1.56,6.92-1.42,1.5-2.72-.17-4.42-2.55-6.58-1.7-1.59-2.89-2.69-1.9-4.48.91-1.62,2.58-1.93,4.54-.85s2.78,2.92,1.73,5Zm15.22,11.88-1.28-.45c-1.28,2.64-3.49,4.11-6.18,3.15-2.95-1.08-3.94-4.34-2.52-8.25s4.34-5.78,7.29-4.71A4.35,4.35,0,0,1,99.3,276l1.28.46a5.69,5.69,0,0,0-3.71-6.75c-4.05-1.47-7.54,1.33-9,5.47-1.67,4.65-.37,8.56,3.34,9.89C94.37,286.19,97.46,284.66,99.07,281.14Zm20.07-4.28-1.3-.34-1.76,6.6-8.22-2.21,1.76-6.58-1.3-.37-4.05,15.14,1.33.34,2-7.29,8.19,2.18-2,7.31,1.3.34ZM136.26,279l-1.36-.17-1.16,9.27c-.4,3.2-1.39,5.27-4.73,4.85s-4-2.55-3.57-5.87l1.19-9.3-1.36-.17L124,287.3c-.51,4.05,1.08,6.43,4.79,6.89s5.7-1.47,6.21-5.44ZM152,293.48l-8-.09.2-14.4h-1.36l-.2,15.65,9.33.11Zm14.37-16.24-9.75,1.42,2.27,15.48,9.81-1.42-.17-1.28-8.5,1.25-.88-6.15L167,285.4l-.2-1.25-7.88,1.16-.79-5.61,8.42-1.22Z"/><path class="cls-3" d="M24.89,105.57l3.71-8.25L14.31,90.91l-.57,1.22,6.83,3.06-2.81,6.26,1.16.51,2.81-6.26L26.87,98l-3.15,7.06Zm-2,5.16L8,105.91l-.42,1.3,6.63,2.15-1.28,4c-.79,2.47-1.64,3.23-4.51,2.49-.79-.2-2.78-.88-3.43-.68l-.48,1.47c.88-.4,3.37.43,4,.6,2,.51,3.26.31,4.14-1.28a3.7,3.7,0,0,0,2.83,3.83c2.86.91,4.62-.51,5.39-2.92Zm-1.64.91-1.42,4.42c-.57,1.73-1.7,3.15-4,2.41-2.67-.85-2.35-3-1.73-4.93l1.22-3.8ZM18,128.78l.28-1.3L3,124.16l-.28,1.33Zm-2.32,16.89,1.25-9.78-15.53-2L.11,143.78l1.28.17,1.08-8.53,6.15.79-1,7.91,1.22.14,1-7.91,5.61.74-1.08,8.42Zm0,5L0,151.21l.2,5.27c.17,4.48,4,6.09,8.36,5.92s7.46-2.18,7.29-6.63ZM14.43,152l.14,3.8c.14,3.29-2.21,5.07-6.15,5.21-3.6.14-6.8-.79-6.95-4.93l-.14-3.57Zm3.74,25.91-1.39-9.75L1.28,170.4l1.42,9.84L4,180.06l-1.25-8.5,6.15-.88L10,178.56l1.25-.17-1.13-7.88,5.58-.82,1.22,8.42ZM8.42,196,6,188.42l13.72-4.31-.42-1.3L4.39,187.52l2.81,8.93Z"/><path class="cls-4" d="M32.23,214.45l-4.68-8.67L13.78,213.2l4.71,8.73,1.13-.6-4.08-7.54L21,210.85l3.77,7,1.11-.6-3.77-7,5-2.69L31.12,215Zm3.17,5.16-13,8.67,2.92,4.37c2.47,3.74,6.55,3.15,10.2.71s5.22-5.75,2.78-9.47Zm-.31,1.84,2.1,3.15c1.81,2.72.74,5.5-2.52,7.68-3,2-6.21,2.86-8.5-.59l-2-3ZM52,240.5l-6.63-7.29L33.79,243.73l6.69,7.34.94-.85-5.75-6.35,4.59-4.17,5.33,5.9.94-.85-5.33-5.9,4.17-3.8,5.73,6.29Zm3.88,3.88L45.78,256.31l1,.88,4.54-5.33,3.17,2.69c2,1.67,2.38,2.78.6,5.13-.48.65-1.87,2.24-1.93,2.92l1.16,1c0-.94,1.7-2.95,2.1-3.52,1.25-1.67,1.53-2.86.4-4.31a3.69,3.69,0,0,0,4.62-1.16c1.93-2.27,1.25-4.45-.65-6.09Zm.2,1.84,3.54,3c1.39,1.19,2.27,2.78.74,4.59-1.81,2.13-3.69,1-5.22-.26L52.1,251ZM187.37,272l-1.3.4,2.69,9c.94,3.09.85,5.36-2.38,6.32s-4.65-.71-5.61-3.91l-2.72-9-1.28.4,2.81,9.33c1.16,3.91,3.57,5.44,7.14,4.37s4.62-3.66,3.46-7.51Zm15.85-6.72-1.16.57,4.11,8.84c.57,1.25,1.22,2.47,1.81,3.71a33.31,33.31,0,0,0-3.06-2.18l-10.49-6.86-1.36.62,6.58,14.23,1.22-.57-4.28-9.18c-.51-1.13-1-2.24-1.64-3.35a25.92,25.92,0,0,0,3.09,2.24l10.43,6.77,1.36-.62Zm5.53-2.72,8.56,13.1,4.42-2.86c3.74-2.46,3.15-6.55.77-10.2s-5.75-5.27-9.44-2.84Zm1.81.34,3.17-2.1c2.75-1.79,5.5-.71,7.65,2.61,2,3,2.83,6.21-.65,8.5l-3,2Z"/><path class="cls-4" d="M136.18,133.52a17.39,17.39,0,0,1,7.77,4.54,15.29,15.29,0,0,0-5.41-2.75,15.77,15.77,0,1,0,7.09,26.11,17.85,17.85,0,1,1-9.44-27.89Z"/><path class="cls-4" d="M138,162.26a13.09,13.09,0,0,1-6.55-.2,11.69,11.69,0,0,0,4.42-.14,11.49,11.49,0,1,0-13.63-14.23A13,13,0,1,1,138,162.26Z"/><path class="cls-4" d="M139.29,127.22l-.17.17c.4.45.11-.23.34.74a6.58,6.58,0,0,1,.14.94l.79,0c1.25.48.11.06,1,1.11.6,0,1.3-.17,1.79.2,1,.77.08,1.28.06,1.28a4.76,4.76,0,0,1-2.69.17v.54c3.66.91,3,1.56,6.07.62l-.06,1.93a19.83,19.83,0,0,0,3.8,3.32c3.6,1.93,6.26,5.58,9.41,3.32,1.42-1-.45-.48,1.36-1.64.08-.06,1.16-.71,1.19-.74.79-.31,1.33-.14,1.47.94.23,1.64-1.22,3.88-2.21,4.9.34,1.67.31.79-.08,2.64-.25,1.19.34,1.25.25,2.52,1,.85.79,1,1,1.9.26,1.22.34.91.79,1.62.94,1.42.48,2.58.71,3.66H160v6.95a4.16,4.16,0,0,1-2.44-3.15c-1.67-.11-1,.28-1.36-.65-.45.31-.23-.31-.51.46-.65,1.87,1.64,2.83.54,5.67-1.59,4.08-6.86,5.27-8.67,1.47-1.22-2.58-.71-3.66.23-5.7a1.87,1.87,0,0,1-1.39-1.53l.91-14.94c.11-.11,0-.28,0-.57-.85-.09-.57-.28-.74,0-23.07.82-18.45,4.62-23.5-7.09H123l-1.47-6.12c-.51-2.38-.65-4.42-1.13-6.89l-.43-4.08c-.91-.34-.68-.26-1.47,0a1.59,1.59,0,0,0-.06-.28l-.2-.37a4.78,4.78,0,0,0-1.76,1l.17-2,4.71-4.08a13.86,13.86,0,0,0,1.25.85c2,1.08,2.66,3.26,3.4,4.54.17-1.19-.62-3.2-.34-5.58.4-3.09.82-2.1,2.32-3.86-.11-2.58-.2-4.2,2-5.13,4.37-1.9,8.79.17,7.85,5-.31,1.7.54,1.22.25,2.72-.17.85-.74,1.39-1,2.52l-2.1.68c-.11,2.1,2.81,3.35,3.09,6.46h0v.2a3.59,3.59,0,0,1,.43.54c.11.25.23.51.31.77A11.54,11.54,0,0,1,139.29,127.22Zm19.5,24.38a3,3,0,0,1,.57,2.13c.65.74.43.88.91,1.62l1-.09a6.82,6.82,0,0,0-.6-2.41C160.24,151.69,160.16,151.63,158.8,151.6Zm0,2.3-.54-1.13c-1.3,1.22-2.24.4-2.52,2.69l-.51,2.32c-.2.82.37.94.65,1.36,2-.54,1.84-.68,2-3l1.22-.77ZM151,167.22c-.54-.62,1-.31-.65-.65C150.69,167.22,150.32,167,151,167.22Zm0-6.72c1,.09,1.13.14,1.7-.59,1-1.3,3.29-3.18-1-2.78Zm-.62-6c.25-1,.28-.57-.79-.79C149.92,154.55,149.39,154.15,150.43,154.52ZM149.1,153c.51-.62.28,0,.88-.88-.4-.2.28-.2-.91-.26-1-.06-.88.31-2.15.51l-.23,3.71A10.71,10.71,0,0,0,149.1,153Zm5.7-1.13a4.77,4.77,0,0,0-2.52-2.75l-1.45,3c.34.6.68.57,1,1.11l-.51,2.33a10,10,0,0,0,2.27-1c.08-1.47-.11-1.73.68-2.35Zm-5.24-1.93a7.47,7.47,0,0,0,.09-1.39l-.28-1c-.45.94.42,1-.34,1.79-.59.62-.91,0-1.45,1.19C148.34,150.87,148.82,150.64,149.56,149.93Zm-19.3-32.46c.11-1.7-.14-1.11-.94-2.07-.65-.77-.17-1-1-2.13a12.63,12.63,0,0,0,.31,3.15l.43,2s.08.2.08.17.06.09.17.11Z"/><path class="cls-4" d="M162.51,153.78a5.71,5.71,0,1,1-5.7,5.7A5.7,5.7,0,0,1,162.51,153.78Z"/><path class="cls-4" d="M150.6,158.23a6.21,6.21,0,1,1-6.24,6.21A6.21,6.21,0,0,1,150.6,158.23Z"/><path class="cls-4" d="M31.86,45.16a3.4,3.4,0,0,1,.45.45,1.3,1.3,0,0,1,.26.4.61.61,0,0,1,0,.31.28.28,0,0,1-.11.26L26.56,53.3,33.05,59l5.61-6.35a.32.32,0,0,1,.23-.14.38.38,0,0,1,.31,0,1,1,0,0,1,.4.2c.14.09.31.23.54.4l.45.45a1.16,1.16,0,0,1,.23.4.72.72,0,0,1,.06.34.51.51,0,0,1-.11.26l-5.58,6.35,7.94,7a.62.62,0,0,1,.14.23.49.49,0,0,1,0,.34,3.25,3.25,0,0,1-.23.45,6.27,6.27,0,0,1-.51.62,4.73,4.73,0,0,1-.54.54,2.63,2.63,0,0,1-.42.31.44.44,0,0,1-.31.06.36.36,0,0,1-.25-.11L23.3,54.77a1.31,1.31,0,0,1-.54-1,1.13,1.13,0,0,1,.31-.82l7.29-8.28a.62.62,0,0,1,.23-.14.49.49,0,0,1,.34,0,1.37,1.37,0,0,1,.42.2A3.08,3.08,0,0,1,31.86,45.16ZM61.68,35.07a20.19,20.19,0,0,1,2.92,4.76,12.1,12.1,0,0,1,1,4.59,9.11,9.11,0,0,1-1,4.28A13.5,13.5,0,0,1,57,54.8a7.91,7.91,0,0,1-4.14.14A10.21,10.21,0,0,1,48.84,53a21.47,21.47,0,0,1-4-3.91A20.52,20.52,0,0,1,42,44.4a11.9,11.9,0,0,1-1-4.56,9.66,9.66,0,0,1,1.08-4.28,11.77,11.77,0,0,1,3.26-3.77,11.87,11.87,0,0,1,4.2-2.3,8.56,8.56,0,0,1,4.14-.17,10.32,10.32,0,0,1,4.05,1.9A20,20,0,0,1,61.68,35.07Zm-2.55,2.32a22.74,22.74,0,0,0-2.81-2.89,9.43,9.43,0,0,0-2.95-1.76,5.84,5.84,0,0,0-3.12-.2A7.47,7.47,0,0,0,47,34.16,7,7,0,0,0,44.73,37a7.11,7.11,0,0,0-.45,3.17,9.36,9.36,0,0,0,1,3.29,17.62,17.62,0,0,0,2.1,3.26,22.16,22.16,0,0,0,2.86,3,8.68,8.68,0,0,0,3,1.79,5.72,5.72,0,0,0,3.09.23,7.39,7.39,0,0,0,3.26-1.64,7.21,7.21,0,0,0,2.3-2.89,6.48,6.48,0,0,0,.43-3.2,9.52,9.52,0,0,0-1-3.32A20.44,20.44,0,0,0,59.13,37.39ZM89,35.24a.63.63,0,0,1,.09.28.38.38,0,0,1-.14.28,1.37,1.37,0,0,1-.43.34,4.61,4.61,0,0,1-.79.45,4.73,4.73,0,0,1-.74.31,2.08,2.08,0,0,1-.51.11.87.87,0,0,1-.37-.09,2.6,2.6,0,0,1-.34-.28L81,32.29A20.2,20.2,0,0,0,79.46,31a5.77,5.77,0,0,0-1.56-.88,4.13,4.13,0,0,0-1.67-.23,4.49,4.49,0,0,0-1.84.54l-2,1,4.82,9.69a.37.37,0,0,1,.06.28.54.54,0,0,1-.14.28,1.63,1.63,0,0,1-.4.34,6.25,6.25,0,0,1-.68.4,7.16,7.16,0,0,1-.74.31l-.48.11a.61.61,0,0,1-.34-.06.48.48,0,0,1-.17-.23L63.84,21.46a1.28,1.28,0,0,1-.11-1.13,1.17,1.17,0,0,1,.6-.62L69,17.38a14.14,14.14,0,0,1,1.42-.65l1-.4a10.07,10.07,0,0,1,2.61-.4,6,6,0,0,1,2.27.43,5.73,5.73,0,0,1,1.84,1.25,7.56,7.56,0,0,1,1.42,2,7.24,7.24,0,0,1,.71,2.18,5.47,5.47,0,0,1-.06,2,5.89,5.89,0,0,1-.74,1.87,10.28,10.28,0,0,1-1.3,1.73,3.92,3.92,0,0,1,1.28.14A4.68,4.68,0,0,1,80.7,28a10.38,10.38,0,0,1,1.33.85c.45.37.94.77,1.45,1.22L88,34.16a5.77,5.77,0,0,1,.74.74A1,1,0,0,1,89,35.24ZM76.59,21.44a4.47,4.47,0,0,0-1.7-2,3.51,3.51,0,0,0-2.58-.37,5.3,5.3,0,0,0-1,.28c-.37.14-.85.37-1.42.65l-2.47,1.22,3.83,7.68L74,27.53a7.48,7.48,0,0,0,1.84-1.28,4.17,4.17,0,0,0,1-1.53,3.16,3.16,0,0,0,.23-1.62A4.74,4.74,0,0,0,76.59,21.44Zm31.61-5.22A18.26,18.26,0,0,1,109,22a10.8,10.8,0,0,1-1.19,4.59,9.74,9.74,0,0,1-3,3.34,16.26,16.26,0,0,1-5,2.24l-5,1.39a1.17,1.17,0,0,1-1.53-1L87.11,10.75a1.26,1.26,0,0,1,.08-1.13,1.24,1.24,0,0,1,.71-.51l5.33-1.5A14.66,14.66,0,0,1,98.65,7a9.67,9.67,0,0,1,4.22,1.39,10.45,10.45,0,0,1,3.2,3.12A16.11,16.11,0,0,1,108.2,16.22Zm-3.26,1.08a13.55,13.55,0,0,0-1.5-3.57,8.42,8.42,0,0,0-2.33-2.55A6.89,6.89,0,0,0,98,10a9.8,9.8,0,0,0-4.2.4l-3.2.91,5.33,19,3.23-.88a11.55,11.55,0,0,0,3.66-1.67,6.37,6.37,0,0,0,2.07-2.52,8.28,8.28,0,0,0,.74-3.46A16.24,16.24,0,0,0,104.94,17.3ZM130,24.72a4.8,4.8,0,0,1,0,.62,2.2,2.2,0,0,1-.06.45,1,1,0,0,1-.2.28.46.46,0,0,1-.25.08l-11.71,1.36a1.19,1.19,0,0,1-.85-.2,1.27,1.27,0,0,1-.51-1L113.84,3.8a1.4,1.4,0,0,1,.26-1.13,1.51,1.51,0,0,1,.79-.4L126.42.94a.47.47,0,0,1,.28.06c.11,0,.17.11.23.23a3,3,0,0,1,.2.43c0,.17.08.4.11.65a4.8,4.8,0,0,1,0,.62c0,.17-.06.31-.08.45a.41.41,0,0,1-.17.25,1,1,0,0,1-.25.11l-9.52,1.11.91,7.91,8.19-1a1,1,0,0,1,.28.06.85.85,0,0,1,.23.23,3.35,3.35,0,0,1,.17.43,3.54,3.54,0,0,1,.11.62,5.27,5.27,0,0,1,0,.62,1.71,1.71,0,0,1-.06.42.61.61,0,0,1-.2.26.46.46,0,0,1-.26.08l-8.19,1,1,9,9.67-1.11a.47.47,0,0,1,.28,0,1.84,1.84,0,0,1,.25.23,3.46,3.46,0,0,1,.17.43A3.06,3.06,0,0,1,130,24.72Zm21.8.79a.83.83,0,0,1-.08.28c0,.09-.11.14-.25.2s-.31.06-.54.08H150a5.24,5.24,0,0,1-.79-.08,2.17,2.17,0,0,1-.51-.14.56.56,0,0,1-.25-.25,1,1,0,0,1-.17-.4l-2-6.09a17.78,17.78,0,0,0-.74-1.9,5.79,5.79,0,0,0-.94-1.53,4.1,4.1,0,0,0-1.36-1,4.6,4.6,0,0,0-1.9-.43l-2.15-.08L138.73,25a1,1,0,0,1-.11.25.41.41,0,0,1-.25.17,2.3,2.3,0,0,1-.51.11,3.7,3.7,0,0,1-.79,0,6.11,6.11,0,0,1-.79-.06l-.48-.14a.62.62,0,0,1-.25-.2.47.47,0,0,1-.06-.28l1-23.53a1.35,1.35,0,0,1,.42-1,1.25,1.25,0,0,1,.85-.25l5.19.2c.62,0,1.13.06,1.56.11l1.08.17a8.61,8.61,0,0,1,2.49.91,5.94,5.94,0,0,1,1.76,1.47,5.08,5.08,0,0,1,1,2,7.31,7.31,0,0,1,.28,2.41,8.73,8.73,0,0,1-.42,2.27,5.8,5.8,0,0,1-1,1.76,6.93,6.93,0,0,1-1.56,1.28,9.74,9.74,0,0,1-2,.88,4.05,4.05,0,0,1,1.08.74,6.63,6.63,0,0,1,.88,1,10.42,10.42,0,0,1,.74,1.39c.23.51.45,1.11.68,1.76l2,5.7a5.87,5.87,0,0,1,.28,1A1.4,1.4,0,0,1,151.79,25.52ZM147.66,7.46a4.85,4.85,0,0,0-.54-2.55A3.76,3.76,0,0,0,145,3.32a8.94,8.94,0,0,0-1.08-.23A10.65,10.65,0,0,0,142.38,3l-2.72-.14-.37,8.56,3.17.14a6.9,6.9,0,0,0,2.24-.23,4.94,4.94,0,0,0,1.59-.82,3.83,3.83,0,0,0,1-1.33A5.34,5.34,0,0,0,147.66,7.46Zm18.2,19.39a.77.77,0,0,1-.28.31.73.73,0,0,1-.4.17,3.45,3.45,0,0,1-.6,0c-.25,0-.57-.06-.94-.11s-.51-.08-.71-.11a2.09,2.09,0,0,1-.54-.14,1.11,1.11,0,0,1-.37-.14.42.42,0,0,1-.26-.17.51.51,0,0,1-.14-.2.48.48,0,0,1-.08-.28L157,1.68A2.25,2.25,0,0,1,157,1a.52.52,0,0,1,.23-.4,1.4,1.4,0,0,1,.57-.08,9.22,9.22,0,0,1,1,.11c.34.06.62.08.82.14a1.34,1.34,0,0,1,.45.2.58.58,0,0,1,.23.23,1,1,0,0,1,.11.34l3.86,22.2h.06l9.84-20.15a1.89,1.89,0,0,1,.17-.34.48.48,0,0,1,.28-.17,1.63,1.63,0,0,1,.54,0,7.15,7.15,0,0,1,.91.11,7.62,7.62,0,0,1,.91.17.77.77,0,0,1,.45.25.46.46,0,0,1,0,.4,3.89,3.89,0,0,1-.28.68Zm25.2,5.64c-.06.23-.14.43-.2.6a2.41,2.41,0,0,1-.25.4,1.06,1.06,0,0,1-.28.17.58.58,0,0,1-.31,0l-11.25-3.43a1.24,1.24,0,0,1-.68-.54,1.19,1.19,0,0,1-.06-1.13l6.6-21.69A1.25,1.25,0,0,1,185.3,6a1.19,1.19,0,0,1,.88-.06l11.11,3.37a.51.51,0,0,1,.25.17.8.8,0,0,1,.11.31,2.75,2.75,0,0,1,0,.45,1.94,1.94,0,0,1-.14.62,2.37,2.37,0,0,1-.23.6,3,3,0,0,1-.23.37.48.48,0,0,1-.28.2.51.51,0,0,1-.28,0l-9.16-2.78L185,16.81l7.88,2.38a.44.44,0,0,1,.23.17.52.52,0,0,1,.11.31,1.07,1.07,0,0,1,0,.43c0,.2-.09.4-.14.65a5.9,5.9,0,0,1-.23.57,1.17,1.17,0,0,1-.23.37.6.6,0,0,1-.57.14l-7.85-2.41-2.66,8.7,9.3,2.83a.55.55,0,0,1,.25.14.8.8,0,0,1,.14.31,1.21,1.21,0,0,1,0,.45A4.28,4.28,0,0,1,191.05,32.49ZM210.7,42a.78.78,0,0,1-.17.23.37.37,0,0,1-.31.08,2.29,2.29,0,0,1-.54-.08l-.82-.34a5.93,5.93,0,0,1-.74-.37,1.14,1.14,0,0,1-.4-.31.49.49,0,0,1-.17-.34,1.88,1.88,0,0,1,0-.43l.37-6.41q0-1.11,0-2a6.67,6.67,0,0,0-.34-1.76,4.24,4.24,0,0,0-.88-1.45,4.61,4.61,0,0,0-1.62-1.08l-2-.88-4.34,9.92a.53.53,0,0,1-.2.23.51.51,0,0,1-.31.06,1.92,1.92,0,0,1-.48-.09,4.43,4.43,0,0,1-.76-.28,3.75,3.75,0,0,1-.68-.34,3.34,3.34,0,0,1-.42-.31,1,1,0,0,1-.17-.28.51.51,0,0,1,.06-.28l9.44-21.57a1.34,1.34,0,0,1,.79-.82,1.32,1.32,0,0,1,.88.06l4.76,2.1c.57.26,1,.45,1.39.65s.68.4,1,.54a10,10,0,0,1,2,1.76,5.26,5.26,0,0,1,1.11,2,5.28,5.28,0,0,1,.25,2.21,7.43,7.43,0,0,1-.62,2.35,7.19,7.19,0,0,1-1.22,2A5.4,5.4,0,0,1,213.87,28a6.46,6.46,0,0,1-1.93.65,9.22,9.22,0,0,1-2.18.09,4.53,4.53,0,0,1,.74,1.08,4.68,4.68,0,0,1,.43,1.3,8.68,8.68,0,0,1,.2,1.56c0,.57,0,1.22,0,1.9l-.23,6a5.74,5.74,0,0,1-.11,1A2.72,2.72,0,0,1,210.7,42Zm2.66-18.34a4.44,4.44,0,0,0,.43-2.55,3.61,3.61,0,0,0-1.36-2.24,8.38,8.38,0,0,0-.91-.6,13.61,13.61,0,0,0-1.42-.68l-2.49-1.11-3.46,7.85,2.92,1.28a7.08,7.08,0,0,0,2.15.6A5.26,5.26,0,0,0,211,26a3.75,3.75,0,0,0,1.39-.88A5.2,5.2,0,0,0,213.36,23.67Zm13,28.26a4,4,0,0,1-.4.48,1.7,1.7,0,0,1-.34.31.86.86,0,0,1-.34.08.85.85,0,0,1-.28-.11L215.35,46a1.28,1.28,0,0,1-.48-.71,1.26,1.26,0,0,1,.28-1.11l13-18.57a1.19,1.19,0,0,1,.94-.65,1.29,1.29,0,0,1,.85.23l9.52,6.66a.35.35,0,0,1,.17.23.56.56,0,0,1,0,.31,1.66,1.66,0,0,1-.17.43,1.75,1.75,0,0,1-.34.57,2.41,2.41,0,0,1-.4.48,1,1,0,0,1-.34.28.65.65,0,0,1-.31.09.46.46,0,0,1-.25-.09L230,28.61l-4.59,6.52,6.75,4.73a.76.76,0,0,1,.2.23,1.06,1.06,0,0,1,0,.31,1.67,1.67,0,0,1-.17.43,4.27,4.27,0,0,1-.34.57,3.69,3.69,0,0,1-.37.48,1.33,1.33,0,0,1-.34.25.65.65,0,0,1-.31.09,1,1,0,0,1-.26-.11l-6.75-4.73-5.22,7.46,8,5.58a.76.76,0,0,1,.2.23,1.07,1.07,0,0,1,0,.31.85.85,0,0,1-.14.43A4.21,4.21,0,0,1,226.35,51.94Zm6.09,6.21a.44.44,0,0,1-.23.17.61.61,0,0,1-.31,0,3.35,3.35,0,0,1-.48-.23c-.17-.11-.37-.28-.62-.48a5.2,5.2,0,0,1-.57-.54,1.71,1.71,0,0,1-.31-.4.86.86,0,0,1-.08-.31.5.5,0,0,1,.11-.28l15.65-18.74a.29.29,0,0,1,.23-.14.47.47,0,0,1,.34,0l.48.23a5.64,5.64,0,0,1,.59.45,3.59,3.59,0,0,1,.57.54,2.61,2.61,0,0,1,.31.43.44.44,0,0,1,.08.31.51.51,0,0,1-.11.25Zm18,17.57a1.91,1.91,0,0,1-.57.37,1.29,1.29,0,0,1-.57,0,1,1,0,0,1-.48-.17,1.14,1.14,0,0,1-.4-.31l-.74-.82a8.85,8.85,0,0,1-.51-.74,2.49,2.49,0,0,1-.17-.79,4.5,4.5,0,0,1,.11-1,11.08,11.08,0,0,1,.45-1.39l5.92-15.17c.28-.79.62-1.62,1-2.44s.71-1.64,1-2.41v0c-.71.62-1.42,1.28-2.15,2s-1.45,1.3-2.18,1.93L239.64,64.86a.36.36,0,0,1-.25.11.44.44,0,0,1-.31-.06,2.59,2.59,0,0,1-.42-.31,4.75,4.75,0,0,1-.57-.54c-.2-.26-.37-.45-.48-.62s-.17-.34-.23-.45a.48.48,0,0,1,0-.34.62.62,0,0,1,.14-.23l17.6-15.51a1.4,1.4,0,0,1,1.13-.42,1.68,1.68,0,0,1,.88.48l1,1.22a3.46,3.46,0,0,1,.54.77,1.72,1.72,0,0,1,.23.74,2.34,2.34,0,0,1-.08.85,10,10,0,0,1-.37,1.11L253.9,63.36l-.82,2.07c-.28.68-.54,1.36-.82,2s-.54,1.3-.79,1.93-.51,1.25-.79,1.87l0,0c.77-.71,1.56-1.45,2.38-2.18s1.64-1.47,2.44-2.15l10.32-9.1a.51.51,0,0,1,.25-.11,2.09,2.09,0,0,1,.34.06,2.65,2.65,0,0,1,.43.31c.14.14.34.31.57.57s.34.43.45.6a1.12,1.12,0,0,1,.23.45.49.49,0,0,1,0,.34.39.39,0,0,1-.14.23Z"/><path class="cls-1" d="M173,126a2.62,2.62,0,0,1-.54-.79c-.17-.25-.37-.51-.57-.77l-.62-.74a3.1,3.1,0,0,1-.28-.31c-.2-.2-.2-.26-.4-.34,0-.57.65-.82,1.25-1l.25-.11a5.12,5.12,0,0,1,2-.68c.14.54.08.51,0,1.19l0,.11s0,0,0,.06v.06l-.65,3A.68.68,0,0,1,173,126Zm-7.12,23.61c.4-.11,2.86-3.29,3.2-3.29a1.6,1.6,0,0,1,.51.2c.48.28.57,1,.68,1.53a7.16,7.16,0,0,0,1.84,2.49,5.19,5.19,0,0,0,1.73,1.22c1.16.57,2.52.2,3.66.14l5.61-.51c.11,0,.2,0,.42,0a1,1,0,0,1,.06.57l-.17.48a.1.1,0,0,0,0,.06c-.09.2-.11.34-.2.51-.23.57-.54.94-.74,1.56a5.14,5.14,0,0,0-.34,1.61c0,1.9.48,2.81.37,5,0,.45-.14.48-.28.88-.26.85-.85,2.15.17,2.69a2.05,2.05,0,0,0,.77.12,4.44,4.44,0,0,1,1.25,0c2.64.42,2,.57,4.56.2,1.08-.17,1.28.43,2.35-.23.26-.14.51-.2.51-.57,0-.6-1.79-.48-2.27-.6h-.06c-1.16-.34-3.57-1-3.83-2.41a3.33,3.33,0,0,1,.23-1.56c.34-1.08.71-1.9,1-2.95.14-.51.23-1,.37-1.5s.17-1.08.34-1.59l.59-2.21a23.62,23.62,0,0,0,1-2.72,8.27,8.27,0,0,1,.11-.88,2.44,2.44,0,0,1,1.16-1.76,1.41,1.41,0,0,1,.31-.11,1.68,1.68,0,0,1,.4-.17c-.08-.25-.14-.25-.4-.4l-2.21-1.53A7.72,7.72,0,0,1,187,142c-.79-1.13-1.16-2.55-2-3.66-.37-.45-.62-.85-1-1.3a3.51,3.51,0,0,1-.74-1.73c0-.31.2-.25.48-.31.54-.06.25-.68.65-1.59l.94-2.24a2.5,2.5,0,0,1,1.67-1.53,11.4,11.4,0,0,1,4.28-.26c.51.09,1,.09,1.53.17s.79.26,1.28.34,1.33.14,1.64-.14a10.31,10.31,0,0,0,1-.94,2.25,2.25,0,0,0,.4-.68c.11-.28,0-.14.2-.37s.23-.25.23-.54-.59-.45-.82-.62c-.59-.43-.48-.06-2.1.08-1.81.14-1,.91-3.6.06-.31-.11-.48-.2-.79-.28l-1.73-.43c-.71-.14-.54-.94-.62-1.5-.2-1.28-.17-2.13,1-2.83.34-.2.37-.34.65-.43,0-.31,0-.28-.17-.45l-.34-.28c-1.3-1.28-.59-1-1-2.24l-.09-.25a3.41,3.41,0,0,0-.51-.74,6.65,6.65,0,0,0-1.39-1.28c-.48-.28-.45-.06-.62-.71l.94.2c.85.14,1.33.14,1.56-.82.14-.54.25-.4.54-.79,0,0,0-.09-.06-.06l-.23-.31c-.14-.14-.25-.06-.25-.34s.4-.14,1-.28a2.52,2.52,0,0,0,.06-.43c0-.28-.11-.17.11-.37s.54-.2.54-.62-.71-.2-.71-2c0-.54.45-1,.45-1.76.37,0,.88.6.88-1.33a4.31,4.31,0,0,0-.79-1.87c.91,0,1.11,1.11,1.7,1.42a2.18,2.18,0,0,0-.57-1.76,3.47,3.47,0,0,0-1.42-1.13,3.17,3.17,0,0,1-.42-.2,1.9,1.9,0,0,0-.48-.17c-.4-.11-.45-.2-.91-.31s-.6-.25-.91-.34-.79-.08-1.16-.17A7,7,0,0,0,181,102a4.21,4.21,0,0,0-1.67.82c-.45.34-1,1.13-1.36,1.22-.6-.4-.65-.68-1.5-.88a8.26,8.26,0,0,0-5.44,1.39l-3.12,1.67a5.07,5.07,0,0,1-1.93.48h-1.76c0,.48.68.28,1.25.43a4.12,4.12,0,0,0,1.33,0,6.28,6.28,0,0,0,1.3-.2,3.49,3.49,0,0,1,1.16-.34c-.11.48-.09.28-.45.45a.09.09,0,0,0-.06,0l-.48.28c-.28.09-.45.09-.74.17a1.63,1.63,0,0,1-.71.17,15.12,15.12,0,0,1-1.56.06,6.84,6.84,0,0,1-1.5-.37c0,.6.34.62.77.85s.77.34,1.19.51l.25.08c.26,0,.11,0,.28,0l.25.06a8.09,8.09,0,0,0,3.4.11l.23-.06a4.75,4.75,0,0,0,2-.94c.14-.11.11-.23.34-.11-.54.82-.94.79-1,1.25a5.15,5.15,0,0,0,1.67-.37l.82-.4a4.73,4.73,0,0,0,1.79-1.25l.14-.14c.34-.31.68-.88,1-1.11,0,0,0,0,.06,0l.28-.17c.17.37-.08.68-.08,1s.06.4.06.54a5.65,5.65,0,0,0,.37,1.9c.37.77,1.42,1.79.79,2.69a1.05,1.05,0,0,0-.25.57c.37.08.2.14.54.25,0,.4,0,.37-.14.65a2,2,0,0,0-.2.25,3.36,3.36,0,0,1-1.08,1,11.32,11.32,0,0,1-2.52,1l-4.28,1.64c-.08.06-.23.08-.34.14-.31.11,0,.11-.57.11,0,.91,1,.51.09,1.33l-1.53,1.93c-1.56,1.84-2.86,1.93-1.13,4.37a12.93,12.93,0,0,0,2.83,2.86c1.45,1.11,2,1.16.37,3.2-.14.17-.23.34-.45.43,0,.54.2.45.51.54s.62.23,1,.31a6.59,6.59,0,0,1,2,.57,9,9,0,0,1-1,1.87l-.37.88a4.87,4.87,0,0,0-.14,3.68l1,2.24a2.36,2.36,0,0,0,.23.54c.45.82.11,1.73-.94,1.13a2.18,2.18,0,0,1-.59-.4,6,6,0,0,0-1.13-.82c-.31.23-.34.71-.54,1.08-.42-.11-.62-.65-.91-1a2.31,2.31,0,0,0-1-.68Z"/><path class="cls-2" d="M149.16,108.2c-.14-.6-.93-2.44-.31-2.89l1.25-.71a8.37,8.37,0,0,1,1.47-.57l.23.28a1.13,1.13,0,0,1,.2.43l-.62.91a7.14,7.14,0,0,1-.71.85c-.17.2-.2.25-.37.45C149.53,107.81,149.78,108.06,149.16,108.2Zm13.15-23.58c-.74,0-.45-.48-1.13.11-.43.34-.74.28-.74-.4-.31.08-.37.25-.65.43a17,17,0,0,1-2.47,1c-.25.28,0,1.13-.79,1.33v.45c.28.11.14-.06.14.2,0,.45-.23.62-.23,1.13,0,.25,0,.62,0,.88a4,4,0,0,0-.17.88c0,.54,1,.48,1,1.62-.45.11-1-.06-1,.71a1.8,1.8,0,0,0,1.28,1.81l.2.06c.23.11.14,0,.28.25a1.21,1.21,0,0,1,.14.48.9.9,0,0,0,.14.4.64.64,0,0,1-.37,1c-1.13.51-3,.25-5.07,1.16l-2.64,1.16c-.42.17-.45.14-.71.45.11.48.23.06.25.71a15.61,15.61,0,0,0-2.81,1.87l-.57.43s0,0-.06.06c-1.5,1.33-1.93,1.73-1,3.83.25.68.68,1.53.88,2.21a5.92,5.92,0,0,0,.59,1.53c.74,1.22.37.51-.45,2.66-.11.28-.11.43-.26.74l-.54,1.19c-.09.28-.2.31-.34.6a3.88,3.88,0,0,0-.2.77c.4.45.74.37.57,1.13l-.14.43c-.06.2,0-.09,0,.11a5,5,0,0,0-.28.85,9.82,9.82,0,0,1-1.45,4.05c-.57.71-1.45-.26-2.95-.65a.1.1,0,0,1-.08,0l7.11,6.92,2.67-2,0,0a19.21,19.21,0,0,0,2.07-1.5c1.08-.94,1.56-.62,2.21.31a12.22,12.22,0,0,1,1.59,2.52c.34.94,1.5,6.26,1.76,7.26l8.28-4.45a1.66,1.66,0,0,1-.14-.45c0-.4.06,0,.06-.28l-.26-4.76c0-.23,0,0,0-.25l-2.24-4.05a10.91,10.91,0,0,1-.51-1l-1.76-2.75c-1.22-1.67-2.18-1.87-1.64-3.94.26-.85.91-.42,1.47-.31a14.82,14.82,0,0,1,2.15,1l1.36.57a9.2,9.2,0,0,1,1.73.94,2.57,2.57,0,0,0,.91.43,2,2,0,0,0,1-.23c.37-.25.31-.09.65-.23a6.93,6.93,0,0,0,1.08-1c-.08-.34-.25-.31-.25-.43,0-.34.09-.31.17-.62a4.16,4.16,0,0,0-2-1.13c-.85-.28-1.11.11-2.15-.43l-1.16-.77a9.83,9.83,0,0,0-2.41-1.59c-.85-.31-.25-.88,0-1.5a9.78,9.78,0,0,1,1.08-2.1c.25-.37.25-.65.51-.77l.28-.43c0-.06,0-.08.09-.17l.14-.2h0l.34-.51c.37-1.13,1.87-1.84-.37-4.08a10.6,10.6,0,0,1-.79-.79c-.59-.74-.77-1.19-.34-2,.17-.34.42-.43.68-.68.57-.62.45-1.08.77-1.79s.94-.45,1.19-1.25c.17-.57.77-1.45-.14-1.53,0-.4,0-.31.11-.6a3.43,3.43,0,0,0,.23-1.62c0-.54-.06-1-.06-1.33l-.17-1.28a2,2,0,0,0-.51-.94,2.68,2.68,0,0,1-.28-.48c-.28-.51-.57-.37-.85-.68s0-.23-.37-.34-.17.08-.59-.2c.14-.37.31-.14.37-.62C163.13,84.17,162.82,84.62,162.31,84.62Z"/><path class="cls-5" d="M116.82,121.61c-.71.62-1,1.25-1.76,1.62.2-.91.23-.51.65-1.45-2.49.14-2.3.77-3,1.28a21,21,0,0,0-5.9-1.87c-2.66-.48-1-1.73-5.5-2.3-.2,2.07-1,2.81-1.22,4.22l-.31-.06-.85,2.52-.37,1.08c.77.4.82.43,1.16,1.25a9.4,9.4,0,0,0,.54,2.3l.71.42c1.28.48,1.13.94,2.44,1.42l.23.82a6.88,6.88,0,0,1,2.47,1.73c3.69,3,5,3.85,2.58,7-1.19,1.56-4.76,4.11-6.38,5.5-1.33,1.16-1,1.13-2.78.57.08,1.81,1.59,1.84,1.28,4.05-.37.88-1.53.85-2.21,1.28-.34,2.58-.06,3.29-1.13,5.61a6.64,6.64,0,0,0-.77,2.66c-.45,2.67-1,.74-.79,3.29,1.64.48,1,1,2.5,2,1,.71,1.93.94,2.21,2.3-.79,1.56-1.93,1.7-4.08,1.76-2.72.08-3.15-.4-4.05-1.47-3.49-.17-5.7,1.45-4.22-4.45.57-2.32-.11-1.45,0-2.86.62.54.28.59,1,1.11.91-.74.77-2.52,1-3.6.23-1.3.34-.94.65-1.76a7.35,7.35,0,0,0,.34-1.84l1.87-7.14c-.6-.6-1.59-.94-1.93-2-.48-1.47,1.36-1.93-2.15-8.65-4.08-7.79-1.39-8.65-1.67-12.27l-.2-1.67c.28-.6,0-.28.34-.65s.2-.2.48-.43c.06-3.34,1.93-1.87,2-5.58-2.89-1.47.14-5.84.59-7.82.51-2.21,2.81-4.31,3.06-4.85,1.28-2.55.4-4.65.79-6.89a10.55,10.55,0,0,1,.68-1.9c.23-.74.76-5.24-.31-6.46-.85-1-1.87-1.42-1.13-3.4L95,85.73a2.07,2.07,0,0,1,1.84.79c0,.08.14.28.17.37l.59,2.3c.6,6,0,2.24,3.37,4.28,2.32,1.42,4.9,2.69,4.9,6l-.77.31c-.45,2.18-1.39,2.13-1,4.42-1,.88-.51-.25-2.32,2.35-.77,1.11-.11.51-.45,1.42-.94,2.61-1,.94.68,3.17,1.87,2.49,3.4,3,6.21,4.34,1.79.85,3.15,2.52,5.39,1.56,3.52-1.5,2.61-1.36,5.47-2a2.91,2.91,0,0,1,2.41.71c.31.51-4.9,3-3.43,3.17.94.14-.62.68-1.33.54C116.73,120.11,116.87,121,116.82,121.61Zm-16.24,18.23c-.51-.62-.43-.82-1.47-.74l0,1.7C100,140.63,100,140.46,100.57,139.84Z"/><path class="cls-4" d="M36.42,27A2.64,2.64,0,1,1,34,29.83,2.63,2.63,0,0,1,36.42,27Z"/><path class="cls-1" d="M268.21,147.92a.87.87,0,0,1,1.22-.2.9.9,0,0,1,.23,1.22.88.88,0,0,1-1.45-1Z"/><path class="cls-4" d="M42.38,22.14a2.5,2.5,0,1,1-2.3,2.66A2.48,2.48,0,0,1,42.38,22.14Z"/><path class="cls-1" d="M268.21,145.14a.83.83,0,0,1,1.19-.2.85.85,0,1,1-1.19.2Z"/><path class="cls-3" d="M53,114.21c.48-2.52,3.46-8.56,4.82-11.06.6-1,.31-.62,1-1.28.34-3.2,10.89-16.41,12.9-18.62,1.76-1.93,3.4-3.66,5.53-5.61,7.37-6.83,16-13.41,26.87-17.92,21.54-9,41.58-10.88,60.83-5h0a95.87,95.87,0,0,1,28.43,10.66c10.29,5.75,18.23,13.32,24.89,20.95,1.9,2.21,3.34,4.14,4.87,6.24,1.79,2.44,10.91,16.81,10.91,20,.65.74.4.28.88,1.42,1.13,2.64,3.46,9,3.68,11.51,1.3.85,3.37,16.1,3.54,17.26.31,2.49.54,5.44.62,8.48l1.19.31c1.13-44.39-27.5-87.7-68-101.42a102,102,0,0,0-12.13-3.26h0c-13.38-2.64-27.64-3.12-40.93-.28-41.64,8.93-74.52,48.61-78,92.89l1.25-.17a73.29,73.29,0,0,1,1.47-8.36C48,129.8,51.62,114.89,53,114.21Z"/><path class="cls-2" d="M47.2,115.49c.45-2.49,3.32-8.59,4.65-11.11.57-1.08.28-.68,1-1.33.28-3.2,10.57-16.64,12.56-18.88,1.73-2,3.29-3.74,5.39-5.75,7.26-7,15.79-13.75,26.53-18.51,21.34-9.47,41.36-11.79,60.72-6.38h0a96.17,96.17,0,0,1,28.63,10C197,69.09,205.14,76.48,211.92,84c2,2.15,3.43,4,5,6.12,1.81,2.38,11.22,16.55,11.31,19.76.65.71.4.26.88,1.39,1.19,2.61,3.66,8.9,3.91,11.42,1.33.82,3.71,16,3.88,17.18.37,2.49.65,5.41.79,8.48l1.19.28c.25-44.42-29.2-87.08-69.93-99.89a103.27,103.27,0,0,0-12.19-3h0c-13.44-2.35-27.72-2.49-40.93.65-41.44,9.84-73.56,50.26-76.14,94.59l1.22-.23c.34-3,.79-5.9,1.33-8.36C42.52,131.19,45.84,116.23,47.2,115.49Z"/><path class="cls-3" d="M96,219C77.58,216.6,63,204.16,59.44,187.83c-5.3-24.46,12.7-41.1,4.65-54.57-.91-.6-.25-1.13-3.34,4.42-14.54,26.25-29.88,53.63-1.67,80.67,21.57,20.69,36.79,16.72,59.22,31.66,5.81,3.88,10.66,9,15.62,14.46,10.74-46.29-20.69-49.72-38.52-69.42-5.67-6.29-13.63-17.18-16.07-18.68C73.25,198,89.86,208.21,96,219Z"/><path class="cls-2" d="M72.88,206.42c-8.39-35.29,20.13-49.89-.45-65.74,2.13,12.78-11.76,36.14-6.77,51.79C67.15,196.93,69.22,204.24,72.88,206.42Z"/><path class="cls-4" d="M184,218.87c18.45-2.47,33.05-14.91,36.6-31.21,5.3-24.46-12.7-41.1-4.65-54.57.91-.6.25-1.16,3.34,4.42,14.54,26.25,29.88,53.63,1.67,80.67-21.57,20.66-36.82,16.7-59.22,31.66-5.81,3.88-10.66,9-15.62,14.46-10.74-46.29,20.69-49.72,38.52-69.42,5.67-6.29,13.63-17.21,16.07-18.71C206.79,197.78,190.18,208,184,218.87Z"/><path class="cls-2" d="M207.16,206.25c8.39-35.29-20.15-49.89.45-65.74-2.13,12.78,11.76,36.11,6.75,51.79C212.88,196.76,210.81,204.07,207.16,206.25Z"/></g></g></g></g></svg>